<svg id="svg" version="1.1" xmlns="http://www.w3.org/2000/svg" xmlns:xlink="http://www.w3.org/1999/xlink" width="400" height="401.1764705882353" viewBox="0, 0, 400,401.1764705882353"><g id="svgg"><path id="path0" d="M190.000 7.430 C 180.071 8.208,174.153 9.081,165.800 11.000 C 164.260 11.354,162.100 11.827,161.000 12.052 C 159.900 12.277,158.829 12.628,158.620 12.831 C 158.411 13.034,157.884 13.200,157.448 13.200 C 156.595 13.200,151.845 14.633,150.705 15.234 C 150.323 15.435,149.683 15.600,149.282 15.600 C 148.881 15.600,148.204 15.864,147.776 16.187 C 147.349 16.510,146.700 16.780,146.332 16.787 C 145.965 16.794,145.155 17.052,144.532 17.361 C 142.383 18.425,140.371 19.200,139.758 19.200 C 139.420 19.200,138.873 19.470,138.543 19.800 C 138.213 20.130,137.618 20.400,137.220 20.400 C 136.823 20.400,136.274 20.670,136.000 21.000 C 135.726 21.330,135.213 21.600,134.859 21.600 C 134.505 21.600,132.503 22.437,130.408 23.461 C 128.314 24.484,126.060 25.554,125.400 25.839 C 124.740 26.124,120.780 28.001,116.600 30.011 C 112.420 32.021,108.640 33.810,108.200 33.987 C 107.760 34.164,105.724 35.140,103.676 36.155 C 101.628 37.170,99.693 38.000,99.376 38.000 C 99.059 38.000,98.800 38.177,98.800 38.392 C 98.800 38.608,98.307 38.909,97.704 39.060 C 97.101 39.211,96.368 39.575,96.075 39.867 C 95.782 40.160,95.273 40.400,94.943 40.400 C 94.613 40.400,94.073 40.670,93.743 41.000 C 93.413 41.330,92.783 41.600,92.343 41.600 C 91.903 41.600,91.273 41.870,90.943 42.200 C 90.613 42.530,89.996 42.800,89.571 42.800 C 89.147 42.800,88.800 42.943,88.800 43.117 C 88.800 43.291,87.765 43.926,86.500 44.528 C 85.235 45.130,83.930 45.794,83.600 46.002 C 80.819 47.761,76.815 50.000,76.449 50.000 C 76.202 50.000,76.000 50.180,76.000 50.400 C 76.000 50.620,75.812 50.800,75.583 50.800 C 75.354 50.800,74.409 51.344,73.483 52.010 C 72.557 52.675,70.314 54.295,68.498 55.610 C 66.682 56.924,65.011 58.000,64.785 58.000 C 64.560 58.000,64.271 58.270,64.145 58.600 C 64.018 58.930,63.679 59.200,63.391 59.200 C 63.102 59.200,62.807 59.360,62.733 59.556 C 62.660 59.751,61.790 60.579,60.800 61.395 C 55.092 66.099,44.000 76.818,44.000 77.629 C 44.000 77.833,43.851 78.000,43.669 78.000 C 43.487 78.000,42.556 79.080,41.600 80.400 C 40.644 81.720,39.755 82.800,39.625 82.800 C 39.495 82.800,38.944 83.520,38.400 84.400 C 37.856 85.280,37.274 86.000,37.106 86.000 C 36.938 86.000,36.800 86.255,36.800 86.567 C 36.800 86.878,36.648 87.193,36.462 87.267 C 36.032 87.436,33.012 91.817,30.994 95.200 C 30.140 96.630,29.298 97.860,29.121 97.933 C 28.944 98.007,28.800 98.309,28.800 98.605 C 28.800 98.901,28.575 99.381,28.300 99.671 C 27.717 100.287,22.993 109.772,22.607 111.100 C 22.464 111.595,22.178 112.000,21.973 112.000 C 21.768 112.000,21.600 112.428,21.600 112.951 C 21.600 113.474,21.330 114.126,21.000 114.400 C 20.670 114.674,20.400 115.221,20.400 115.617 C 20.400 116.012,20.144 116.845,19.832 117.468 C 19.519 118.090,18.965 119.410,18.600 120.400 C 18.235 121.390,17.681 122.710,17.368 123.332 C 17.056 123.955,16.794 125.035,16.787 125.732 C 16.780 126.430,16.510 127.349,16.187 127.776 C 15.864 128.204,15.600 129.023,15.600 129.596 C 15.600 130.170,15.430 130.811,15.223 131.020 C 14.860 131.386,14.627 132.175,13.340 137.400 C 11.842 143.484,11.243 146.447,9.783 155.000 C 9.445 156.980,9.006 160.760,8.807 163.400 C 8.609 166.040,8.265 169.280,8.042 170.600 C 7.820 171.920,7.538 175.790,7.416 179.200 C 7.294 182.610,6.993 189.090,6.747 193.600 C 6.118 205.147,6.812 230.225,8.044 240.489 C 8.275 242.408,8.624 245.828,8.820 248.089 C 9.017 250.350,9.427 253.640,9.733 255.400 C 10.039 257.160,10.510 259.860,10.780 261.400 C 11.050 262.940,11.427 264.499,11.617 264.865 C 11.808 265.231,12.085 266.450,12.234 267.574 C 12.383 268.698,12.662 269.715,12.853 269.833 C 13.044 269.951,13.201 270.442,13.202 270.924 C 13.204 271.406,13.474 272.316,13.802 272.946 C 14.131 273.576,14.400 274.340,14.400 274.645 C 14.400 274.949,14.940 276.341,15.600 277.738 C 16.260 279.135,16.800 280.539,16.800 280.859 C 16.800 281.178,16.971 281.611,17.179 281.820 C 17.388 282.029,17.992 283.017,18.523 284.015 C 19.998 286.792,20.555 287.720,21.100 288.313 C 21.375 288.612,21.600 289.095,21.600 289.386 C 21.600 289.677,21.825 290.004,22.100 290.113 C 22.375 290.223,22.960 291.007,23.400 291.855 C 23.840 292.704,24.560 293.759,25.000 294.199 C 25.440 294.640,26.237 295.630,26.770 296.400 C 27.304 297.170,27.979 297.944,28.270 298.120 C 28.562 298.296,28.800 298.686,28.800 298.987 C 28.800 299.287,28.937 299.593,29.105 299.667 C 29.274 299.740,30.579 301.223,32.005 302.962 C 39.531 312.135,42.332 314.134,52.000 317.230 C 52.550 317.406,54.800 318.196,57.000 318.985 C 59.200 319.774,62.260 320.846,63.800 321.366 C 65.340 321.887,67.050 322.495,67.600 322.718 C 68.150 322.941,70.490 323.709,72.800 324.425 C 75.110 325.141,77.360 325.865,77.800 326.033 C 78.240 326.201,79.680 326.634,81.000 326.994 C 82.320 327.354,85.110 328.162,87.200 328.789 C 95.836 331.381,98.180 331.880,98.592 331.212 C 98.733 330.986,98.671 330.800,98.456 330.800 C 97.621 330.800,85.959 324.906,81.800 322.381 C 79.362 320.902,71.826 315.926,71.600 315.647 C 71.490 315.511,70.048 314.298,68.396 312.952 C 65.074 310.244,56.503 301.792,54.856 299.600 C 54.278 298.830,53.707 298.110,53.588 298.000 C 53.359 297.787,51.209 294.514,49.457 291.708 C 47.373 288.371,48.151 287.651,51.600 289.724 C 52.810 290.451,54.070 291.172,54.400 291.327 C 54.730 291.482,55.540 291.951,56.200 292.369 C 56.860 292.788,58.750 293.821,60.400 294.665 C 62.050 295.509,63.990 296.591,64.711 297.070 C 65.433 297.548,66.873 298.326,67.911 298.798 C 68.950 299.271,70.160 299.855,70.600 300.097 C 74.328 302.146,76.504 303.200,77.006 303.200 C 77.333 303.200,77.600 303.360,77.600 303.557 C 77.600 303.753,78.093 304.037,78.696 304.188 C 79.299 304.340,79.884 304.584,79.996 304.732 C 80.265 305.086,85.149 307.457,86.300 307.792 C 86.795 307.936,87.200 308.222,87.200 308.427 C 87.200 308.632,87.487 308.800,87.838 308.800 C 88.189 308.800,88.954 309.060,89.538 309.378 C 90.122 309.696,91.320 310.254,92.200 310.617 C 93.080 310.980,94.767 311.727,95.949 312.275 C 97.132 312.824,99.247 313.705,100.649 314.233 C 102.052 314.761,103.515 315.363,103.900 315.572 C 105.036 316.186,111.221 318.400,111.802 318.400 C 112.095 318.400,112.845 318.656,113.468 318.969 C 114.090 319.282,115.680 319.845,117.000 320.221 C 118.320 320.596,119.784 321.047,120.254 321.222 C 121.556 321.708,130.593 323.874,134.200 324.564 C 144.632 326.560,157.165 327.135,165.000 325.977 C 169.083 325.373,179.681 322.855,180.180 322.369 C 180.389 322.166,180.836 322.000,181.172 322.000 C 181.509 322.000,182.778 321.616,183.992 321.146 C 185.207 320.677,186.560 320.156,187.000 319.988 C 194.344 317.186,203.018 313.094,218.600 305.081 C 220.456 304.126,233.489 297.855,236.200 296.611 C 236.860 296.309,238.596 295.507,240.057 294.830 C 241.519 294.154,242.899 293.600,243.125 293.600 C 243.350 293.600,244.135 293.300,244.868 292.932 C 245.600 292.565,246.560 292.085,247.000 291.864 C 248.008 291.360,252.947 289.580,258.400 287.756 C 260.710 286.983,262.960 286.201,263.400 286.018 C 263.840 285.835,266.360 285.003,269.000 284.169 C 271.640 283.334,273.980 282.524,274.200 282.368 C 274.420 282.212,275.770 281.720,277.200 281.277 C 279.425 280.586,280.969 279.986,286.600 277.624 C 288.682 276.750,294.365 273.823,295.380 273.101 C 298.599 270.810,302.043 268.065,303.000 267.028 C 305.541 264.274,307.367 262.118,308.953 260.000 C 309.859 258.790,310.825 257.562,311.100 257.271 C 311.375 256.981,311.600 256.545,311.600 256.303 C 311.600 256.061,311.847 255.579,312.149 255.231 C 313.652 253.502,320.000 240.783,320.000 239.502 C 320.000 239.204,320.152 238.789,320.338 238.580 C 320.524 238.371,321.092 237.030,321.600 235.600 C 322.108 234.170,322.676 232.829,322.862 232.620 C 323.048 232.411,323.200 231.898,323.200 231.480 C 323.200 231.063,323.440 230.154,323.734 229.460 C 324.465 227.736,325.189 225.674,325.651 224.000 C 325.864 223.230,326.196 222.240,326.389 221.800 C 326.582 221.360,326.835 220.550,326.952 220.000 C 327.157 219.034,328.050 215.776,329.365 211.200 C 330.527 207.152,333.813 191.284,334.169 188.000 C 334.276 187.010,334.480 185.750,334.622 185.200 C 335.112 183.303,335.283 165.440,334.852 161.200 C 334.445 157.185,334.340 156.328,333.799 152.535 C 333.305 149.071,335.390 150.368,340.405 156.643 C 341.390 157.876,344.393 164.210,344.974 166.282 C 345.271 167.337,345.866 169.460,346.297 171.000 C 347.021 173.589,348.253 179.809,348.596 182.609 C 349.063 186.419,349.612 193.590,349.729 197.400 C 349.897 202.883,350.299 202.981,352.207 198.000 C 352.586 197.010,353.050 195.840,353.239 195.400 C 353.976 193.681,357.431 182.337,357.747 180.600 C 358.543 176.224,358.904 174.432,359.239 173.200 C 359.681 171.578,360.201 167.644,360.997 159.892 C 361.308 156.863,361.654 154.237,361.765 154.056 C 362.708 152.531,362.705 100.419,361.762 95.869 C 361.663 95.391,361.407 92.632,361.194 89.737 C 360.760 83.860,361.113 84.617,356.400 79.470 C 351.233 73.827,343.785 66.587,338.019 61.600 C 336.620 60.390,335.194 59.085,334.849 58.700 C 334.504 58.315,334.037 57.999,333.811 57.998 C 333.585 57.997,332.735 57.386,331.923 56.639 C 331.110 55.893,329.625 54.693,328.623 53.973 C 327.620 53.253,326.800 52.515,326.800 52.332 C 326.800 52.149,326.545 52.000,326.233 52.000 C 325.922 52.000,325.607 51.865,325.533 51.700 C 325.331 51.245,322.890 49.600,322.416 49.600 C 322.187 49.600,322.000 49.456,322.000 49.280 C 322.000 49.105,321.285 48.520,320.411 47.980 C 319.537 47.441,318.817 46.865,318.811 46.700 C 318.805 46.535,318.613 46.400,318.384 46.400 C 317.910 46.400,315.469 44.755,315.267 44.300 C 315.193 44.135,314.961 44.000,314.750 44.000 C 314.419 44.000,312.176 42.576,311.600 42.000 C 311.490 41.890,310.545 41.354,309.500 40.808 C 308.455 40.263,307.600 39.678,307.600 39.508 C 307.600 39.339,307.249 39.200,306.820 39.200 C 306.391 39.200,305.896 38.975,305.720 38.700 C 305.373 38.158,302.978 36.703,300.900 35.772 C 300.185 35.451,299.600 35.012,299.600 34.795 C 299.600 34.578,299.358 34.400,299.063 34.400 C 298.768 34.400,297.733 33.957,296.763 33.415 C 295.793 32.874,294.100 31.977,293.000 31.422 C 291.900 30.867,290.268 30.005,289.374 29.507 C 288.479 29.008,286.904 28.258,285.874 27.840 C 284.843 27.422,284.000 26.927,284.000 26.740 C 284.000 26.553,283.680 26.400,283.289 26.400 C 282.898 26.400,282.223 26.157,281.789 25.860 C 281.355 25.563,280.505 25.199,279.900 25.052 C 279.295 24.905,278.800 24.608,278.800 24.392 C 278.800 24.177,278.372 24.000,277.849 24.000 C 277.326 24.000,276.674 23.730,276.400 23.400 C 276.126 23.070,275.496 22.800,275.000 22.800 C 274.504 22.800,273.874 22.530,273.600 22.200 C 273.326 21.870,272.798 21.600,272.427 21.600 C 272.056 21.600,271.404 21.336,270.976 21.013 C 270.549 20.690,269.808 20.420,269.329 20.413 C 268.849 20.406,268.187 20.130,267.857 19.800 C 267.527 19.470,266.839 19.194,266.329 19.187 C 265.818 19.180,265.051 18.910,264.624 18.587 C 264.196 18.264,263.566 17.999,263.224 17.998 C 262.881 17.996,262.084 17.726,261.454 17.398 C 260.824 17.069,259.924 16.794,259.454 16.787 C 258.984 16.780,258.251 16.510,257.824 16.187 C 257.396 15.864,256.552 15.600,255.947 15.600 C 255.342 15.600,254.745 15.434,254.619 15.231 C 254.494 15.028,253.808 14.741,253.095 14.594 C 251.506 14.265,248.033 13.201,247.149 12.771 C 246.791 12.597,245.801 12.339,244.949 12.199 C 244.097 12.058,243.040 11.791,242.600 11.607 C 241.794 11.268,239.186 10.701,234.400 9.825 C 232.970 9.563,231.530 9.246,231.200 9.122 C 230.490 8.854,224.397 8.044,219.600 7.580 C 213.003 6.942,197.238 6.862,190.000 7.430 " stroke="none" fill="#ebebeb" fill-rule="evenodd"></path><path id="path1" d="M179.600 0.400 C 179.600 0.635,178.216 0.800,176.249 0.800 C 173.758 0.800,172.770 0.954,172.400 1.400 C 172.047 1.826,171.112 2.000,169.180 2.000 C 167.293 2.000,166.273 2.184,165.857 2.600 C 165.484 2.973,164.502 3.200,163.262 3.200 C 162.165 3.200,161.207 3.360,161.133 3.555 C 161.060 3.750,160.100 4.009,159.000 4.130 C 157.900 4.251,156.944 4.361,156.876 4.375 C 156.808 4.389,156.841 4.543,156.949 4.717 C 157.056 4.891,156.662 5.072,156.072 5.118 C 154.348 5.254,153.152 5.543,152.659 5.943 C 152.407 6.149,151.522 6.406,150.693 6.515 C 149.864 6.625,148.952 6.908,148.666 7.145 C 148.381 7.382,147.574 7.620,146.873 7.673 C 146.152 7.728,145.600 7.993,145.600 8.285 C 145.600 8.605,145.080 8.800,144.229 8.800 C 143.474 8.800,142.587 9.070,142.257 9.400 C 141.927 9.730,141.203 10.000,140.648 10.000 C 140.094 10.000,139.492 10.264,139.311 10.587 C 139.131 10.909,138.381 11.219,137.645 11.275 C 136.909 11.331,136.219 11.607,136.111 11.889 C 136.003 12.170,135.503 12.400,135.000 12.400 C 134.497 12.400,133.982 12.670,133.855 13.000 C 133.723 13.344,133.126 13.600,132.455 13.600 C 131.785 13.600,131.187 13.856,131.055 14.200 C 130.929 14.530,130.382 14.800,129.841 14.800 C 129.300 14.800,128.587 15.070,128.257 15.400 C 127.927 15.730,127.194 16.000,126.629 16.000 C 125.981 16.000,125.600 16.222,125.600 16.600 C 125.600 17.000,125.200 17.200,124.400 17.200 C 123.600 17.200,123.200 17.400,123.200 17.800 C 123.200 18.200,122.800 18.400,122.000 18.400 C 121.200 18.400,120.800 18.600,120.800 19.000 C 120.800 19.400,120.400 19.600,119.600 19.600 C 118.800 19.600,118.400 19.800,118.400 20.200 C 118.400 20.594,118.005 20.800,117.249 20.800 C 116.616 20.800,115.874 21.070,115.600 21.400 C 115.326 21.730,114.886 22.000,114.622 22.000 C 114.359 22.000,113.437 22.343,112.574 22.763 C 111.711 23.183,110.869 23.442,110.702 23.340 C 110.536 23.237,110.400 23.324,110.400 23.533 C 110.400 23.742,109.907 24.037,109.304 24.188 C 108.701 24.340,108.116 24.584,108.004 24.732 C 107.605 25.255,105.124 26.400,104.387 26.400 C 103.976 26.400,103.484 26.679,103.293 27.019 C 103.103 27.360,102.558 27.668,102.084 27.704 C 101.609 27.739,101.132 28.001,101.023 28.284 C 100.914 28.568,100.364 28.800,99.800 28.800 C 99.236 28.800,98.671 29.070,98.545 29.400 C 98.418 29.730,97.878 30.000,97.345 30.000 C 96.811 30.000,96.271 30.270,96.145 30.600 C 96.018 30.930,95.478 31.200,94.945 31.200 C 94.411 31.200,93.871 31.470,93.745 31.800 C 93.613 32.142,93.017 32.400,92.357 32.400 C 91.595 32.400,91.200 32.605,91.200 33.000 C 91.200 33.400,90.800 33.600,90.000 33.600 C 89.225 33.600,88.800 33.803,88.800 34.173 C 88.800 34.502,88.330 34.801,87.700 34.873 C 87.081 34.945,86.644 35.219,86.700 35.500 C 86.762 35.808,86.355 36.000,85.643 36.000 C 84.983 36.000,84.387 36.258,84.255 36.600 C 84.129 36.930,83.569 37.200,83.013 37.200 C 82.379 37.200,82.000 37.425,82.000 37.800 C 82.000 38.200,81.600 38.400,80.800 38.400 C 80.000 38.400,79.600 38.600,79.600 39.000 C 79.600 39.400,79.200 39.600,78.400 39.600 C 77.600 39.600,77.200 39.800,77.200 40.200 C 77.200 40.530,76.926 40.800,76.592 40.800 C 76.258 40.800,75.313 41.224,74.492 41.742 C 73.671 42.259,72.595 42.812,72.100 42.969 C 71.605 43.125,71.200 43.410,71.200 43.600 C 71.200 43.790,70.837 44.061,70.394 44.202 C 69.951 44.343,69.692 44.625,69.818 44.829 C 69.944 45.033,69.623 45.200,69.105 45.200 C 68.549 45.200,67.760 45.685,67.181 46.383 C 66.642 47.034,65.885 47.574,65.500 47.583 C 64.741 47.601,63.200 48.952,63.200 49.600 C 63.200 49.820,62.846 50.000,62.414 50.000 C 61.981 50.000,61.075 50.540,60.400 51.200 C 59.725 51.860,58.999 52.400,58.786 52.400 C 58.574 52.400,58.400 52.670,58.400 53.000 C 58.400 53.375,58.021 53.600,57.387 53.600 C 56.831 53.600,56.271 53.870,56.145 54.200 C 56.018 54.530,55.664 54.800,55.357 54.800 C 55.051 54.800,54.800 55.070,54.800 55.400 C 54.800 55.730,54.530 56.000,54.200 56.000 C 53.870 56.000,53.600 56.270,53.600 56.600 C 53.600 56.930,53.330 57.200,53.000 57.200 C 52.670 57.200,52.400 57.470,52.400 57.800 C 52.400 58.130,52.149 58.400,51.843 58.400 C 51.536 58.400,51.182 58.670,51.055 59.000 C 50.929 59.330,50.459 59.600,50.013 59.600 C 49.557 59.600,49.200 59.864,49.200 60.200 C 49.200 60.530,49.059 60.800,48.886 60.800 C 48.392 60.800,42.000 67.079,42.000 67.565 C 42.000 67.804,41.846 67.955,41.657 67.900 C 41.127 67.745,38.420 70.913,38.409 71.700 C 38.404 72.085,38.130 72.400,37.800 72.400 C 37.470 72.400,37.200 72.670,37.200 73.000 C 37.200 73.330,36.930 73.600,36.600 73.600 C 36.270 73.600,36.000 73.870,36.000 74.200 C 36.000 74.530,35.730 74.800,35.400 74.800 C 35.070 74.800,34.800 75.070,34.800 75.400 C 34.800 75.730,34.530 76.000,34.200 76.000 C 33.870 76.000,33.600 76.251,33.600 76.557 C 33.600 76.864,33.330 77.218,33.000 77.345 C 32.670 77.471,32.400 78.031,32.400 78.587 C 32.400 79.144,32.220 79.600,32.000 79.600 C 31.481 79.600,30.000 81.081,30.000 81.600 C 30.000 81.820,29.820 82.000,29.600 82.000 C 29.380 82.000,29.200 82.238,29.200 82.528 C 29.200 82.818,28.653 83.668,27.985 84.416 C 27.317 85.165,26.671 86.174,26.549 86.659 C 26.427 87.145,26.074 87.639,25.764 87.759 C 25.454 87.878,25.200 88.251,25.200 88.587 C 25.200 88.924,25.040 89.200,24.843 89.200 C 24.647 89.200,24.374 89.650,24.236 90.200 C 24.098 90.750,23.808 91.200,23.592 91.200 C 23.377 91.200,23.200 91.740,23.200 92.400 C 23.200 93.200,23.000 93.600,22.600 93.600 C 22.267 93.600,22.000 93.956,22.000 94.400 C 22.000 94.840,21.783 95.155,21.518 95.100 C 21.060 95.005,20.965 95.217,20.850 96.600 C 20.823 96.930,20.530 97.200,20.200 97.200 C 19.825 97.200,19.600 97.579,19.600 98.213 C 19.600 98.769,19.330 99.329,19.000 99.455 C 18.670 99.582,18.400 100.122,18.400 100.655 C 18.400 101.189,18.130 101.729,17.800 101.855 C 17.470 101.982,17.200 102.497,17.200 103.000 C 17.200 103.503,16.930 104.018,16.600 104.145 C 16.270 104.271,16.000 104.811,16.000 105.345 C 16.000 105.878,15.730 106.418,15.400 106.545 C 15.057 106.676,14.800 107.273,14.800 107.938 C 14.800 108.578,14.530 109.326,14.200 109.600 C 13.870 109.874,13.600 110.616,13.600 111.249 C 13.600 112.005,13.394 112.400,13.000 112.400 C 12.605 112.400,12.400 112.795,12.400 113.557 C 12.400 114.194,12.168 114.803,11.885 114.912 C 11.601 115.021,11.324 115.780,11.269 116.599 C 11.214 117.418,10.906 118.351,10.585 118.673 C 10.263 118.994,10.000 119.765,10.000 120.386 C 10.000 121.020,9.737 121.615,9.400 121.745 C 9.029 121.887,8.800 122.495,8.800 123.338 C 8.800 124.088,8.530 124.926,8.200 125.200 C 7.860 125.483,7.600 126.355,7.600 127.216 C 7.600 128.050,7.397 128.801,7.149 128.884 C 6.901 128.966,6.605 130.011,6.490 131.205 C 6.375 132.399,6.038 133.619,5.741 133.916 C 5.443 134.214,5.200 135.267,5.200 136.257 C 5.200 137.247,4.963 138.294,4.674 138.584 C 4.384 138.873,4.104 140.075,4.051 141.255 C 3.999 142.435,3.786 143.460,3.578 143.533 C 3.370 143.607,3.200 144.802,3.200 146.191 C 3.200 148.065,3.046 148.774,2.600 148.945 C 2.128 149.126,2.000 149.942,2.000 152.759 C 2.000 155.411,1.844 156.499,1.400 156.943 C 0.936 157.407,0.800 158.590,0.800 162.171 C 0.800 164.990,0.644 166.800,0.400 166.800 C 0.136 166.800,0.000 180.267,0.000 206.400 C 0.000 232.533,0.136 246.000,0.400 246.000 C 0.641 246.000,0.800 247.667,0.800 250.200 C 0.800 253.667,0.905 254.400,1.400 254.400 C 1.887 254.400,2.000 255.048,2.000 257.829 C 2.000 260.343,2.160 261.417,2.600 261.857 C 2.998 262.256,3.200 263.254,3.200 264.829 C 3.200 266.143,3.378 267.200,3.600 267.200 C 3.820 267.200,4.000 267.976,4.000 268.924 C 4.000 269.871,4.264 270.996,4.587 271.424 C 4.910 271.851,5.180 272.745,5.187 273.411 C 5.194 274.077,5.466 275.001,5.790 275.464 C 6.115 275.928,6.425 276.889,6.479 277.600 C 6.533 278.311,6.786 278.973,7.041 279.071 C 7.297 279.169,7.617 279.943,7.752 280.791 C 7.888 281.639,8.187 282.396,8.417 282.472 C 8.647 282.549,8.866 283.014,8.903 283.506 C 8.940 283.998,9.103 284.400,9.265 284.400 C 9.428 284.400,9.973 285.300,10.478 286.400 C 10.982 287.500,11.621 288.400,11.898 288.400 C 12.174 288.400,12.400 288.856,12.400 289.413 C 12.400 289.969,12.659 290.524,12.976 290.646 C 13.292 290.767,13.667 291.393,13.808 292.037 C 13.949 292.680,14.230 293.105,14.433 292.980 C 14.635 292.855,14.800 293.123,14.800 293.576 C 14.800 294.042,15.061 294.400,15.400 294.400 C 15.758 294.400,16.000 294.768,16.000 295.311 C 16.000 295.813,16.515 296.673,17.147 297.228 C 17.777 297.782,18.420 298.632,18.574 299.117 C 18.728 299.603,19.022 300.000,19.227 300.000 C 19.432 300.000,19.600 300.243,19.600 300.540 C 19.600 300.837,20.140 301.494,20.800 302.000 C 21.460 302.506,22.000 303.163,22.000 303.460 C 22.000 303.757,22.270 304.000,22.600 304.000 C 22.936 304.000,23.200 304.357,23.200 304.813 C 23.200 305.259,23.469 305.728,23.798 305.854 C 24.126 305.981,24.317 306.211,24.221 306.366 C 24.125 306.521,24.576 307.085,25.223 307.619 C 25.871 308.154,26.400 308.818,26.400 309.096 C 26.400 309.373,26.650 309.600,26.957 309.600 C 27.263 309.600,27.623 310.038,27.758 310.573 C 27.892 311.109,28.364 311.662,28.807 311.802 C 29.249 311.943,29.529 312.192,29.427 312.356 C 29.326 312.520,29.683 313.129,30.221 313.710 C 30.760 314.290,31.200 314.953,31.200 315.183 C 31.200 315.412,31.470 315.600,31.800 315.600 C 32.130 315.600,32.400 315.870,32.400 316.200 C 32.400 316.530,32.670 316.800,33.000 316.800 C 33.330 316.800,33.600 317.070,33.600 317.400 C 33.600 317.730,33.870 318.000,34.200 318.000 C 34.530 318.000,34.800 318.270,34.800 318.600 C 34.800 318.930,35.070 319.200,35.400 319.200 C 35.730 319.200,36.000 319.470,36.000 319.800 C 36.000 320.130,36.270 320.400,36.600 320.400 C 36.930 320.400,37.200 320.670,37.200 321.000 C 37.200 321.330,37.470 321.600,37.800 321.600 C 38.130 321.600,38.400 321.858,38.400 322.174 C 38.400 322.490,39.480 323.791,40.800 325.066 C 42.120 326.340,43.200 327.612,43.200 327.891 C 43.200 328.171,43.398 328.400,43.640 328.400 C 44.092 328.400,46.800 330.933,46.800 331.355 C 46.800 331.848,48.202 333.200,48.713 333.200 C 49.007 333.200,49.135 333.382,48.998 333.603 C 48.861 333.825,49.165 334.174,49.674 334.378 C 50.183 334.582,50.422 334.761,50.204 334.775 C 49.800 334.801,52.276 337.141,53.900 338.267 C 54.395 338.611,54.800 339.120,54.800 339.399 C 54.800 339.678,55.178 340.006,55.640 340.126 C 56.103 340.247,56.362 340.538,56.217 340.773 C 56.072 341.008,56.164 341.200,56.423 341.200 C 56.682 341.200,57.614 341.965,58.494 342.900 C 59.375 343.835,60.254 344.622,60.448 344.650 C 60.641 344.678,61.070 344.723,61.400 344.750 C 61.730 344.778,62.000 345.070,62.000 345.400 C 62.000 345.730,62.270 346.000,62.600 346.000 C 62.930 346.000,63.200 346.270,63.200 346.600 C 63.200 346.930,63.380 347.200,63.600 347.200 C 63.820 347.200,64.000 347.470,64.000 347.800 C 64.000 348.130,64.193 348.400,64.429 348.400 C 64.666 348.400,65.726 349.255,66.787 350.300 C 69.467 352.942,71.281 354.400,71.886 354.400 C 72.169 354.400,72.400 354.670,72.400 355.000 C 72.400 355.330,72.670 355.600,73.000 355.600 C 73.330 355.600,73.600 355.870,73.600 356.200 C 73.600 356.530,73.804 356.800,74.054 356.800 C 74.304 356.800,74.898 357.205,75.373 357.700 C 76.472 358.843,78.650 360.400,79.150 360.400 C 79.361 360.400,79.593 360.536,79.667 360.703 C 79.883 361.194,83.079 363.600,83.515 363.600 C 83.735 363.600,84.018 363.870,84.145 364.200 C 84.271 364.530,84.651 364.800,84.987 364.800 C 85.324 364.800,85.600 365.049,85.600 365.353 C 85.600 365.658,85.915 366.012,86.300 366.142 C 87.296 366.476,88.545 367.315,88.920 367.900 C 89.096 368.175,89.506 368.400,89.832 368.400 C 90.158 368.400,90.529 368.670,90.655 369.000 C 90.782 369.330,91.226 369.600,91.643 369.600 C 92.059 369.600,92.400 369.870,92.400 370.200 C 92.400 370.533,92.756 370.800,93.200 370.800 C 93.640 370.800,94.000 370.977,94.000 371.192 C 94.000 371.408,94.450 371.698,95.000 371.836 C 95.550 371.974,96.000 372.318,96.000 372.600 C 96.000 372.882,96.450 373.226,97.000 373.364 C 97.550 373.502,98.000 373.792,98.000 374.008 C 98.000 374.223,98.360 374.400,98.800 374.400 C 99.240 374.400,99.600 374.558,99.600 374.751 C 99.600 374.945,100.140 375.327,100.800 375.600 C 101.460 375.873,102.000 376.255,102.000 376.449 C 102.000 376.642,102.251 376.800,102.557 376.800 C 102.864 376.800,103.218 377.070,103.345 377.400 C 103.471 377.730,103.919 378.000,104.338 378.000 C 104.758 378.000,105.326 378.270,105.600 378.600 C 105.874 378.930,106.324 379.200,106.600 379.200 C 106.876 379.200,107.326 379.470,107.600 379.800 C 107.874 380.130,108.358 380.400,108.676 380.400 C 108.993 380.400,109.843 380.850,110.564 381.400 C 111.286 381.950,112.186 382.400,112.566 382.400 C 112.946 382.400,113.527 382.670,113.857 383.000 C 114.187 383.330,114.894 383.600,115.429 383.600 C 115.992 383.600,116.358 383.810,116.300 384.100 C 116.235 384.423,116.802 384.644,117.900 384.723 C 119.057 384.807,119.600 385.030,119.600 385.423 C 119.600 385.793,120.016 386.000,120.757 386.000 C 121.420 386.000,122.013 386.258,122.146 386.604 C 122.273 386.936,122.518 387.184,122.689 387.156 C 124.047 386.933,125.600 387.277,125.600 387.800 C 125.600 388.220,126.024 388.400,127.013 388.400 C 127.899 388.400,128.511 388.623,128.655 389.000 C 128.812 389.408,129.451 389.600,130.655 389.600 C 131.859 389.600,132.499 389.792,132.655 390.200 C 132.804 390.587,133.423 390.800,134.400 390.800 C 135.278 390.800,135.999 391.020,136.115 391.323 C 136.235 391.635,137.101 391.884,138.258 391.939 C 139.397 391.993,140.384 392.273,140.644 392.616 C 140.896 392.947,141.762 393.206,142.644 393.213 C 143.500 393.220,144.549 393.490,144.976 393.813 C 145.470 394.186,146.680 394.400,148.300 394.400 C 149.701 394.400,150.748 394.561,150.626 394.758 C 150.321 395.252,151.035 395.448,153.561 395.566 C 154.769 395.622,155.973 395.916,156.290 396.233 C 156.669 396.612,157.765 396.800,159.595 396.800 C 161.101 396.800,162.393 396.969,162.467 397.175 C 162.634 397.648,164.334 397.925,167.324 397.967 C 168.602 397.985,169.550 398.157,169.432 398.349 C 169.147 398.810,171.567 399.190,174.820 399.196 C 176.261 399.198,177.629 399.389,177.860 399.620 C 179.086 400.846,242.564 401.169,244.418 399.959 C 244.969 399.599,246.685 399.216,248.325 399.087 C 249.934 398.960,251.464 398.683,251.725 398.471 C 251.986 398.260,252.986 397.998,253.947 397.890 C 254.908 397.782,255.813 397.503,255.957 397.270 C 256.101 397.037,257.063 396.803,258.095 396.749 C 259.199 396.692,260.054 396.436,260.173 396.126 C 260.286 395.832,260.984 395.600,261.759 395.600 C 262.520 395.600,263.413 395.330,263.743 395.000 C 264.073 394.670,264.671 394.394,265.071 394.386 C 265.472 394.378,266.250 394.114,266.800 393.800 C 267.350 393.486,268.211 393.222,268.713 393.214 C 269.214 393.206,269.729 392.930,269.855 392.600 C 269.982 392.270,270.522 392.000,271.055 392.000 C 271.589 392.000,272.129 391.730,272.255 391.400 C 272.382 391.070,272.813 390.800,273.214 390.800 C 273.615 390.800,274.213 390.530,274.543 390.200 C 274.873 389.870,275.496 389.600,275.929 389.600 C 276.361 389.600,276.818 389.330,276.945 389.000 C 277.071 388.670,277.631 388.400,278.187 388.400 C 278.821 388.400,279.200 388.175,279.200 387.800 C 279.200 387.275,279.939 386.997,280.911 387.156 C 281.082 387.184,281.327 386.936,281.454 386.604 C 281.581 386.272,281.914 386.000,282.194 386.000 C 282.473 386.000,282.926 385.730,283.200 385.400 C 283.474 385.070,284.036 384.800,284.449 384.800 C 284.862 384.800,285.200 384.530,285.200 384.200 C 285.200 383.800,285.600 383.600,286.400 383.600 C 287.200 383.600,287.600 383.400,287.600 383.000 C 287.600 382.670,287.870 382.400,288.200 382.400 C 288.530 382.400,288.800 382.220,288.800 382.000 C 288.800 381.780,288.935 381.619,289.100 381.643 C 289.704 381.730,291.200 381.097,291.200 380.753 C 291.200 380.559,291.472 380.400,291.804 380.400 C 292.136 380.400,292.708 380.049,293.075 379.620 C 293.442 379.192,293.892 378.933,294.074 379.046 C 294.256 379.159,294.514 378.969,294.646 378.625 C 294.778 378.281,295.232 378.000,295.655 378.000 C 296.079 378.000,296.529 377.730,296.655 377.400 C 296.782 377.070,297.142 376.800,297.455 376.800 C 297.769 376.800,298.119 376.554,298.235 376.254 C 298.350 375.953,299.152 375.368,300.018 374.954 C 300.883 374.539,301.595 374.020,301.599 373.800 C 301.604 373.580,302.416 373.045,303.404 372.610 C 304.392 372.176,305.200 371.591,305.200 371.310 C 305.200 371.030,305.470 370.800,305.800 370.800 C 306.130 370.800,306.400 370.530,306.400 370.200 C 306.400 369.825,306.779 369.600,307.413 369.600 C 307.969 369.600,308.529 369.330,308.655 369.000 C 308.782 368.670,309.136 368.400,309.443 368.400 C 309.749 368.400,310.000 368.151,310.000 367.847 C 310.000 367.542,310.315 367.188,310.700 367.058 C 311.773 366.698,312.866 365.910,313.973 364.700 C 314.526 364.095,315.208 363.600,315.489 363.600 C 315.770 363.600,316.001 363.465,316.003 363.300 C 316.004 363.135,316.679 362.553,317.503 362.007 C 318.326 361.461,319.675 360.336,320.500 359.507 C 321.324 358.678,322.179 358.000,322.400 358.000 C 322.620 358.000,322.800 357.750,322.800 357.443 C 322.800 357.137,323.219 356.782,323.731 356.653 C 324.243 356.524,325.153 355.965,325.752 355.410 C 326.351 354.854,327.012 354.400,327.221 354.400 C 327.429 354.400,327.600 354.220,327.600 354.000 C 327.600 353.481,329.081 352.000,329.600 352.000 C 329.820 352.000,330.000 351.730,330.000 351.400 C 330.000 351.070,330.270 350.800,330.600 350.800 C 330.930 350.800,331.200 350.530,331.200 350.200 C 331.200 349.870,331.469 349.600,331.797 349.600 C 332.125 349.600,332.875 349.060,333.463 348.400 C 334.051 347.740,334.678 347.200,334.855 347.200 C 335.033 347.200,337.262 345.130,339.809 342.600 C 342.355 340.070,344.610 338.000,344.819 338.000 C 345.029 338.000,345.200 337.730,345.200 337.400 C 345.200 337.070,345.470 336.800,345.800 336.800 C 346.130 336.800,346.400 336.530,346.400 336.200 C 346.400 335.870,346.670 335.600,347.000 335.600 C 347.330 335.600,347.600 335.330,347.600 335.000 C 347.600 334.670,347.870 334.400,348.200 334.400 C 348.530 334.400,348.800 334.130,348.800 333.800 C 348.800 333.470,349.070 333.200,349.400 333.200 C 349.730 333.200,350.000 333.020,350.000 332.800 C 350.000 332.281,351.481 330.800,352.000 330.800 C 352.220 330.800,352.400 330.597,352.400 330.348 C 352.400 330.100,353.390 328.946,354.600 327.783 C 355.810 326.620,356.800 325.475,356.800 325.238 C 356.800 325.001,357.160 324.582,357.600 324.307 C 358.040 324.032,358.400 323.662,358.400 323.485 C 358.400 323.307,358.850 322.745,359.400 322.235 C 359.950 321.725,360.400 321.194,360.400 321.054 C 360.400 320.647,361.961 319.200,362.400 319.200 C 362.620 319.200,362.800 319.014,362.800 318.787 C 362.800 318.559,363.300 317.884,363.911 317.287 C 365.093 316.131,365.200 315.942,365.200 315.000 C 365.200 314.670,365.470 314.400,365.800 314.400 C 366.130 314.400,366.400 314.130,366.400 313.800 C 366.400 313.470,366.670 313.200,367.000 313.200 C 367.330 313.200,367.600 312.930,367.600 312.600 C 367.600 312.270,367.870 312.000,368.200 312.000 C 368.533 312.000,368.800 311.644,368.800 311.200 C 368.800 310.760,368.977 310.400,369.192 310.400 C 369.408 310.400,369.698 309.950,369.836 309.400 C 369.974 308.850,370.337 308.400,370.643 308.400 C 370.950 308.400,371.200 308.130,371.200 307.800 C 371.200 307.470,371.470 307.200,371.800 307.200 C 372.130 307.200,372.400 306.862,372.400 306.449 C 372.400 306.036,372.670 305.474,373.000 305.200 C 373.330 304.926,373.600 304.535,373.600 304.332 C 373.600 304.128,374.020 303.565,374.532 303.081 C 375.045 302.596,375.900 301.300,376.432 300.200 C 376.965 299.100,377.580 297.981,377.800 297.714 C 378.020 297.447,378.403 296.983,378.651 296.683 C 378.899 296.384,379.226 295.747,379.378 295.269 C 379.530 294.791,379.822 294.400,380.027 294.400 C 380.232 294.400,380.400 294.062,380.400 293.649 C 380.400 293.236,380.670 292.674,381.000 292.400 C 381.330 292.126,381.600 291.731,381.600 291.522 C 381.600 291.314,381.870 290.873,382.200 290.543 C 382.530 290.213,382.800 289.596,382.800 289.171 C 382.800 288.747,383.070 288.400,383.400 288.400 C 383.775 288.400,384.000 288.021,384.000 287.387 C 384.000 286.831,384.270 286.271,384.600 286.145 C 384.942 286.013,385.200 285.417,385.200 284.757 C 385.200 283.995,385.405 283.600,385.800 283.600 C 386.195 283.600,386.400 283.205,386.400 282.443 C 386.400 281.783,386.658 281.187,387.000 281.055 C 387.330 280.929,387.600 280.447,387.600 279.984 C 387.600 279.521,387.870 278.873,388.200 278.543 C 388.530 278.213,388.800 277.493,388.800 276.943 C 388.800 276.393,389.070 275.673,389.400 275.343 C 389.730 275.013,390.000 274.126,390.000 273.371 C 390.000 272.419,390.183 272.000,390.600 272.000 C 391.044 272.000,391.200 271.533,391.200 270.200 C 391.200 268.867,391.356 268.400,391.800 268.400 C 392.235 268.400,392.400 267.952,392.400 266.771 C 392.400 265.857,392.663 264.880,393.000 264.543 C 393.348 264.195,393.600 263.218,393.600 262.220 C 393.600 261.273,393.838 260.301,394.128 260.060 C 394.418 259.819,394.699 258.673,394.752 257.513 C 394.806 256.327,395.069 255.281,395.352 255.123 C 395.634 254.965,395.897 253.924,395.950 252.757 C 396.003 251.611,396.274 250.206,396.553 249.636 C 396.832 249.066,397.109 247.790,397.168 246.800 C 397.227 245.810,397.394 244.910,397.538 244.800 C 397.943 244.491,398.113 243.615,398.301 240.875 C 398.396 239.486,398.703 237.908,398.983 237.369 C 400.296 234.836,400.203 153.128,398.884 151.486 C 398.670 151.219,398.398 149.580,398.282 147.845 C 398.165 146.110,397.890 144.579,397.671 144.444 C 397.452 144.308,397.227 143.298,397.170 142.199 C 397.114 141.099,396.839 139.928,396.558 139.595 C 396.278 139.263,396.009 137.876,395.959 136.513 C 395.906 135.027,395.678 133.962,395.389 133.851 C 395.125 133.750,394.817 132.714,394.705 131.550 C 394.593 130.386,394.299 129.366,394.051 129.284 C 393.799 129.200,393.600 128.277,393.600 127.195 C 393.600 126.006,393.368 125.025,393.000 124.657 C 392.670 124.327,392.400 123.616,392.400 123.078 C 392.400 122.539,392.130 121.874,391.800 121.600 C 391.470 121.326,391.200 120.513,391.200 119.794 C 391.200 119.000,390.964 118.395,390.600 118.255 C 390.204 118.103,390.000 117.477,390.000 116.413 C 390.000 115.246,389.834 114.800,389.400 114.800 C 388.999 114.800,388.800 114.399,388.800 113.587 C 388.800 112.879,388.551 112.279,388.200 112.145 C 387.851 112.011,387.600 111.412,387.600 110.714 C 387.600 109.919,387.431 109.579,387.100 109.706 C 386.767 109.833,386.565 109.414,386.496 108.449 C 386.439 107.652,386.142 106.813,385.835 106.584 C 385.529 106.356,385.211 105.726,385.129 105.184 C 385.048 104.643,384.760 104.245,384.491 104.300 C 384.190 104.361,384.000 103.935,384.000 103.200 C 384.000 102.400,383.800 102.000,383.400 102.000 C 383.070 102.000,382.800 101.653,382.800 101.229 C 382.800 100.804,382.530 100.187,382.200 99.857 C 381.870 99.527,381.600 99.064,381.600 98.829 C 381.600 98.593,381.330 98.400,381.000 98.400 C 380.597 98.400,380.400 97.997,380.400 97.176 C 380.400 96.463,380.233 96.056,380.000 96.200 C 379.780 96.336,379.600 96.284,379.600 96.085 C 379.600 95.885,379.240 95.307,378.800 94.800 C 378.360 94.293,378.000 93.661,378.000 93.397 C 378.000 93.133,377.550 92.431,377.000 91.838 C 376.450 91.244,376.000 90.601,376.000 90.408 C 376.000 90.215,375.685 89.742,375.300 89.357 C 374.915 88.972,374.600 88.527,374.600 88.367 C 374.600 88.208,374.105 87.618,373.500 87.058 C 372.895 86.497,372.400 85.878,372.400 85.681 C 372.400 85.485,372.044 85.002,371.609 84.609 C 371.175 84.215,370.915 83.737,371.033 83.547 C 371.151 83.356,370.988 83.200,370.670 83.200 C 370.353 83.200,369.994 82.822,369.874 82.360 C 369.753 81.897,369.462 81.638,369.227 81.783 C 368.977 81.938,368.800 81.705,368.800 81.224 C 368.800 80.771,368.622 80.400,368.405 80.400 C 367.790 80.400,366.400 79.082,366.400 78.499 C 366.400 78.211,366.130 77.871,365.800 77.745 C 365.470 77.618,365.200 77.258,365.200 76.945 C 365.200 76.631,364.930 76.271,364.600 76.145 C 364.270 76.018,364.000 75.664,364.000 75.357 C 364.000 75.051,363.730 74.800,363.400 74.800 C 363.070 74.800,362.800 74.530,362.800 74.200 C 362.800 73.870,362.530 73.600,362.200 73.600 C 361.870 73.600,361.600 73.330,361.600 73.000 C 361.600 72.670,361.330 72.400,361.000 72.400 C 360.670 72.400,360.400 72.196,360.400 71.946 C 360.400 71.696,359.950 71.075,359.400 70.565 C 358.850 70.055,358.400 69.450,358.400 69.219 C 358.400 68.989,358.230 68.800,358.022 68.800 C 357.529 68.800,352.400 63.671,352.400 63.178 C 352.400 62.970,352.211 62.800,351.981 62.800 C 351.750 62.800,351.145 62.350,350.635 61.800 C 350.125 61.250,349.504 60.800,349.254 60.800 C 349.004 60.800,348.800 60.530,348.800 60.200 C 348.800 59.870,348.530 59.600,348.200 59.600 C 347.870 59.600,347.600 59.330,347.600 59.000 C 347.600 58.670,347.330 58.400,347.000 58.400 C 346.670 58.400,346.400 58.130,346.400 57.800 C 346.400 57.470,346.149 57.200,345.843 57.200 C 345.536 57.200,345.182 56.930,345.055 56.600 C 344.929 56.270,344.549 56.000,344.213 56.000 C 343.876 56.000,343.600 55.730,343.600 55.400 C 343.600 55.064,343.243 54.800,342.787 54.800 C 342.341 54.800,341.871 54.530,341.745 54.200 C 341.618 53.870,341.264 53.600,340.957 53.600 C 340.651 53.600,340.400 53.422,340.400 53.205 C 340.400 52.596,339.085 51.200,338.511 51.200 C 338.230 51.200,338.000 50.930,338.000 50.600 C 338.000 50.270,337.730 50.000,337.400 50.000 C 337.070 50.000,336.800 49.816,336.800 49.590 C 336.800 49.365,336.350 49.009,335.800 48.800 C 335.250 48.591,334.800 48.235,334.800 48.010 C 334.800 47.784,334.612 47.600,334.383 47.600 C 334.154 47.600,333.611 47.269,333.177 46.864 C 332.742 46.459,331.896 45.874,331.296 45.564 C 330.697 45.254,329.783 44.550,329.265 44.000 C 328.747 43.450,328.205 42.988,328.061 42.974 C 327.538 42.921,325.205 41.392,325.203 41.100 C 325.201 40.935,324.930 40.800,324.600 40.800 C 324.270 40.800,324.000 40.530,324.000 40.200 C 324.000 39.800,323.600 39.600,322.800 39.600 C 322.000 39.600,321.600 39.400,321.600 39.000 C 321.600 38.670,321.330 38.400,321.000 38.400 C 320.670 38.400,320.400 38.130,320.400 37.800 C 320.400 37.427,320.022 37.200,319.400 37.200 C 318.850 37.200,318.400 37.016,318.400 36.790 C 318.400 36.565,317.950 36.209,317.400 36.000 C 316.850 35.791,316.400 35.435,316.400 35.210 C 316.400 34.984,316.049 34.800,315.620 34.800 C 315.191 34.800,314.696 34.575,314.520 34.300 C 314.150 33.722,312.902 32.879,311.928 32.549 C 311.558 32.424,311.159 32.069,311.040 31.761 C 310.922 31.452,310.389 31.200,309.855 31.200 C 309.322 31.200,308.782 30.930,308.655 30.600 C 308.529 30.270,307.969 30.000,307.413 30.000 C 306.856 30.000,306.396 29.775,306.392 29.500 C 306.387 29.225,305.487 28.592,304.392 28.092 C 303.296 27.593,302.400 27.046,302.400 26.877 C 302.400 26.708,302.011 26.541,301.536 26.505 C 301.061 26.469,300.566 26.292,300.436 26.112 C 300.306 25.931,299.750 25.561,299.200 25.289 C 298.650 25.017,297.480 24.354,296.600 23.815 C 295.720 23.276,294.685 22.827,294.300 22.817 C 293.915 22.808,293.600 22.620,293.600 22.400 C 293.600 22.180,293.060 22.000,292.400 22.000 C 291.600 22.000,291.200 21.800,291.200 21.400 C 291.200 21.000,290.800 20.800,290.000 20.800 C 289.200 20.800,288.800 20.600,288.800 20.200 C 288.800 19.800,288.400 19.600,287.600 19.600 C 286.800 19.600,286.400 19.400,286.400 19.000 C 286.400 18.605,286.005 18.400,285.243 18.400 C 284.583 18.400,283.987 18.142,283.855 17.800 C 283.729 17.470,283.169 17.200,282.613 17.200 C 281.979 17.200,281.600 16.975,281.600 16.600 C 281.600 16.205,281.205 16.000,280.443 16.000 C 279.783 16.000,279.187 15.742,279.055 15.400 C 278.913 15.028,278.304 14.800,277.455 14.800 C 276.607 14.800,275.998 14.572,275.855 14.200 C 275.729 13.870,275.164 13.600,274.600 13.600 C 274.036 13.600,273.486 13.369,273.378 13.086 C 273.269 12.804,272.704 12.533,272.120 12.485 C 271.537 12.437,270.762 12.128,270.399 11.799 C 270.035 11.469,269.333 11.200,268.840 11.200 C 268.347 11.200,267.673 10.930,267.343 10.600 C 267.013 10.270,266.145 10.000,265.414 10.000 C 264.602 10.000,263.996 9.767,263.855 9.400 C 263.722 9.054,263.125 8.800,262.441 8.800 C 261.790 8.800,260.942 8.485,260.557 8.100 C 260.172 7.715,259.799 7.445,259.729 7.500 C 259.658 7.555,258.835 7.597,257.900 7.594 C 256.655 7.589,256.361 7.484,256.800 7.200 C 257.130 6.987,257.310 6.800,257.200 6.786 C 257.090 6.771,256.190 6.659,255.200 6.536 C 254.210 6.414,253.155 6.114,252.855 5.870 C 252.555 5.626,251.591 5.401,250.713 5.369 C 249.835 5.338,248.974 5.082,248.800 4.800 C 248.626 4.518,247.610 4.205,246.542 4.104 C 245.474 4.003,244.429 3.758,244.220 3.560 C 244.011 3.362,243.143 3.200,242.291 3.200 C 241.440 3.200,240.473 2.930,240.143 2.600 C 239.738 2.195,238.732 2.000,237.048 2.000 C 235.473 2.000,234.266 1.783,233.776 1.413 C 233.253 1.017,231.990 0.821,229.900 0.813 C 228.108 0.805,226.800 0.631,226.800 0.400 C 226.800 0.138,218.667 0.000,203.200 0.000 C 187.733 0.000,179.600 0.138,179.600 0.400 M221.800 6.318 C 222.900 6.558,225.960 7.051,228.600 7.413 C 231.240 7.776,234.390 8.311,235.600 8.603 C 238.635 9.334,241.502 9.986,243.400 10.377 C 244.280 10.558,246.890 11.286,249.200 11.994 C 251.510 12.703,254.120 13.504,255.000 13.774 C 255.880 14.044,256.870 14.367,257.200 14.491 C 257.530 14.616,258.970 15.117,260.400 15.605 C 261.830 16.092,263.567 16.741,264.260 17.046 C 264.954 17.350,265.721 17.600,265.966 17.600 C 266.211 17.600,266.723 17.765,267.105 17.967 C 267.487 18.168,270.140 19.324,273.000 20.536 C 283.195 24.853,288.157 27.218,297.200 32.070 C 300.510 33.846,307.670 38.018,310.200 39.645 C 311.080 40.211,311.981 40.748,312.203 40.837 C 313.093 41.198,328.020 51.455,328.400 51.967 C 328.510 52.116,329.770 53.112,331.200 54.181 C 332.630 55.249,333.980 56.334,334.200 56.591 C 334.420 56.848,334.893 57.225,335.252 57.429 C 337.411 58.658,349.531 70.132,356.400 77.450 C 359.468 80.719,359.830 81.135,362.601 84.600 C 363.480 85.700,364.303 86.690,364.430 86.800 C 365.887 88.069,374.583 100.594,376.095 103.600 C 376.593 104.590,377.111 105.490,377.246 105.600 C 377.658 105.935,382.253 115.643,383.209 118.200 C 383.703 119.520,384.248 120.960,384.420 121.400 C 384.591 121.840,385.040 123.190,385.416 124.400 C 385.792 125.610,386.340 127.320,386.635 128.200 C 387.312 130.225,389.192 137.291,389.616 139.400 C 391.477 148.667,392.202 153.034,392.772 158.400 C 393.017 160.710,393.392 163.860,393.605 165.400 C 394.844 174.340,395.109 211.710,394.001 221.200 C 393.808 222.850,393.476 225.730,393.262 227.600 C 392.538 233.949,391.994 237.793,391.393 240.800 C 391.063 242.450,390.511 245.240,390.166 247.000 C 389.453 250.643,389.358 251.030,387.365 258.400 C 385.109 266.742,383.841 270.695,382.104 274.800 C 380.966 277.489,376.010 287.416,374.815 289.400 C 374.153 290.500,373.487 291.670,373.336 292.000 C 372.964 292.814,365.954 303.349,365.617 303.600 C 365.470 303.710,364.126 305.420,362.630 307.400 C 354.287 318.446,337.297 335.955,322.845 348.400 C 321.440 349.610,320.090 350.783,319.845 351.006 C 319.600 351.229,318.590 352.037,317.600 352.801 C 316.610 353.565,314.270 355.469,312.400 357.033 C 310.530 358.596,308.264 360.338,307.364 360.903 C 306.464 361.467,305.474 362.173,305.164 362.470 C 302.453 365.072,282.069 378.800,280.917 378.800 C 280.777 378.800,280.379 379.056,280.031 379.370 C 278.007 381.197,263.044 388.139,258.293 389.456 C 245.180 393.090,239.896 393.874,221.900 394.854 C 209.810 395.513,182.362 393.915,173.200 392.020 C 172.210 391.815,169.960 391.427,168.200 391.157 C 166.440 390.887,164.100 390.528,163.000 390.359 C 157.595 389.526,150.519 387.909,137.800 384.597 C 135.327 383.953,127.481 381.354,125.823 380.630 C 125.151 380.336,123.655 379.709,122.500 379.237 C 118.892 377.761,113.522 375.123,110.467 373.326 C 108.854 372.377,107.369 371.600,107.167 371.600 C 106.965 371.600,106.800 371.449,106.800 371.264 C 106.800 371.080,106.310 370.705,105.712 370.433 C 104.649 369.948,94.396 363.296,94.000 362.834 C 93.890 362.705,92.630 361.797,91.200 360.816 C 89.024 359.323,85.425 356.622,82.803 354.516 C 82.471 354.250,80.562 352.717,78.560 351.111 C 70.019 344.257,50.680 325.732,41.246 315.367 C 40.061 314.065,37.984 311.830,36.629 310.400 C 35.275 308.970,33.454 306.902,32.583 305.804 C 31.712 304.706,30.581 303.356,30.070 302.804 C 29.164 301.826,22.700 293.306,21.698 291.770 C 21.423 291.346,20.433 289.825,19.498 288.390 C 17.999 286.084,15.280 280.856,14.409 278.600 C 14.239 278.160,13.894 277.289,13.642 276.664 C 12.320 273.382,10.702 267.796,9.859 263.600 C 7.550 252.104,7.112 248.630,6.027 233.200 C 5.538 226.251,5.537 185.919,6.025 178.600 C 6.881 165.769,7.557 159.161,8.644 153.000 C 9.840 146.222,11.518 138.290,12.199 136.200 C 12.485 135.320,13.028 133.430,13.404 132.000 C 13.780 130.570,14.231 129.040,14.406 128.600 C 14.580 128.160,15.298 126.000,16.001 123.800 C 16.704 121.600,17.621 119.045,18.039 118.122 C 18.458 117.199,18.800 116.333,18.800 116.197 C 18.800 116.061,19.271 114.927,19.846 113.675 C 20.421 112.424,21.424 110.230,22.073 108.800 C 23.301 106.097,25.688 101.387,26.773 99.524 C 28.301 96.903,32.882 89.474,33.226 89.058 C 33.436 88.806,34.733 87.070,36.110 85.200 C 37.487 83.330,38.999 81.350,39.470 80.800 C 39.941 80.250,41.320 78.625,42.534 77.190 C 45.376 73.828,51.446 67.666,54.935 64.600 C 56.437 63.280,58.074 61.840,58.573 61.400 C 60.268 59.904,61.399 59.001,62.400 58.346 C 62.950 57.986,63.788 57.356,64.263 56.946 C 64.737 56.536,65.519 55.930,66.000 55.600 C 66.480 55.270,67.892 54.266,69.137 53.368 C 72.083 51.244,75.933 48.750,77.200 48.145 C 77.530 47.987,78.520 47.408,79.400 46.858 C 80.280 46.308,82.710 44.968,84.800 43.880 C 86.890 42.792,88.955 41.654,89.389 41.351 C 89.823 41.048,90.498 40.800,90.889 40.800 C 91.280 40.800,91.600 40.620,91.600 40.400 C 91.600 40.180,91.799 40.000,92.042 40.000 C 92.285 40.000,95.796 38.380,99.843 36.400 C 103.891 34.420,107.268 32.800,107.348 32.800 C 107.428 32.800,110.893 31.172,115.047 29.182 C 119.201 27.192,123.140 25.326,123.800 25.034 C 124.460 24.742,126.170 23.957,127.600 23.288 C 130.404 21.976,135.062 19.856,137.000 19.009 C 137.660 18.720,138.650 18.286,139.200 18.045 C 144.862 15.555,157.876 11.317,164.400 9.838 C 166.050 9.463,168.030 8.999,168.800 8.805 C 170.773 8.310,179.659 6.917,183.000 6.580 C 184.540 6.425,186.880 6.158,188.200 5.988 C 191.766 5.529,219.430 5.800,221.800 6.318 " stroke="none" fill="#9da5c4" fill-rule="evenodd"></path><path id="path2" d="M192.400 6.421 C 189.870 6.622,185.550 7.080,182.800 7.438 C 180.050 7.797,176.720 8.223,175.400 8.386 C 174.080 8.549,172.010 8.906,170.800 9.180 C 165.053 10.478,158.445 12.108,157.000 12.584 C 156.120 12.874,153.600 13.686,151.400 14.389 C 149.200 15.092,146.833 15.922,146.140 16.233 C 145.446 16.545,144.679 16.800,144.434 16.800 C 144.189 16.800,143.677 16.965,143.295 17.166 C 142.913 17.367,141.610 17.920,140.400 18.395 C 139.190 18.870,137.300 19.671,136.200 20.176 C 135.100 20.681,133.300 21.490,132.200 21.974 C 131.100 22.459,129.726 23.111,129.146 23.423 C 128.566 23.736,126.676 24.604,124.946 25.352 C 123.216 26.101,118.920 28.098,115.400 29.789 C 90.906 41.559,83.801 45.091,80.086 47.346 C 78.043 48.586,76.292 49.600,76.195 49.600 C 76.045 49.600,69.423 53.991,68.202 54.899 C 52.383 66.673,38.913 80.708,31.442 93.200 C 30.850 94.190,30.199 95.270,29.994 95.600 C 27.139 100.211,23.572 107.127,20.409 114.179 C 15.143 125.923,9.612 147.391,8.398 160.800 C 8.229 162.670,7.892 165.910,7.650 168.000 C 5.638 185.354,5.546 222.821,7.470 241.400 C 7.812 244.700,8.227 248.750,8.392 250.400 C 9.500 261.469,12.818 273.796,17.094 282.738 C 18.231 285.115,24.649 295.103,25.616 296.000 C 25.734 296.110,26.724 297.370,27.816 298.800 C 28.907 300.230,29.899 301.490,30.020 301.600 C 30.141 301.710,31.761 303.596,33.620 305.792 C 39.220 312.405,68.638 341.608,74.527 346.400 C 75.203 346.950,76.059 347.694,76.430 348.052 C 76.801 348.411,78.341 349.650,79.852 350.805 C 81.364 351.959,82.690 353.020,82.800 353.161 C 83.156 353.618,93.752 361.409,95.300 362.352 C 96.125 362.854,96.800 363.431,96.800 363.633 C 96.800 363.835,96.987 364.000,97.216 364.000 C 97.690 364.000,100.131 365.645,100.333 366.100 C 100.407 366.265,100.635 366.400,100.841 366.400 C 101.047 366.400,101.977 366.891,102.908 367.492 C 105.269 369.016,106.107 369.524,106.800 369.855 C 107.130 370.013,108.120 370.599,109.000 371.157 C 111.610 372.815,113.665 373.951,116.000 375.029 C 117.210 375.587,119.100 376.471,120.200 376.992 C 124.028 378.807,125.960 379.600,126.554 379.600 C 126.884 379.600,127.264 379.780,127.400 380.000 C 127.536 380.220,127.952 380.401,128.324 380.402 C 128.696 380.404,129.516 380.674,130.146 381.002 C 130.776 381.331,131.559 381.600,131.885 381.600 C 132.212 381.600,133.046 381.852,133.740 382.160 C 135.166 382.793,137.796 383.519,140.279 383.965 C 141.202 384.131,142.192 384.455,142.479 384.686 C 142.765 384.917,143.630 385.190,144.400 385.293 C 146.081 385.519,149.118 386.245,151.654 387.028 C 152.673 387.342,154.074 387.600,154.767 387.600 C 155.459 387.600,156.672 387.870,157.462 388.200 C 158.251 388.530,159.484 388.800,160.200 388.800 C 160.916 388.800,162.739 389.056,164.251 389.369 C 169.010 390.353,174.583 391.200,176.297 391.200 C 177.205 391.200,178.433 391.384,179.025 391.609 C 179.617 391.835,182.464 392.197,185.351 392.414 C 188.238 392.632,192.400 392.999,194.600 393.230 C 199.785 393.775,226.218 393.758,231.400 393.205 C 233.600 392.971,237.143 392.617,239.273 392.418 C 241.403 392.219,243.507 391.864,243.947 391.628 C 244.387 391.393,245.332 391.200,246.047 391.200 C 247.283 391.200,249.759 390.654,254.200 389.402 C 255.300 389.092,256.650 388.758,257.200 388.660 C 258.132 388.493,259.917 387.912,261.800 387.162 C 262.240 386.986,263.590 386.458,264.800 385.987 C 266.010 385.517,267.270 384.966,267.600 384.764 C 267.930 384.561,268.470 384.287,268.800 384.155 C 270.269 383.568,274.620 381.374,274.808 381.125 C 274.923 380.974,275.463 380.656,276.008 380.419 C 276.554 380.182,277.540 379.633,278.200 379.198 C 278.860 378.764,279.670 378.285,280.000 378.134 C 280.330 377.982,280.691 377.755,280.801 377.629 C 280.912 377.503,281.812 376.969,282.801 376.442 C 285.151 375.191,293.761 369.525,293.933 369.116 C 294.007 368.942,294.251 368.800,294.476 368.800 C 294.701 368.800,295.567 368.260,296.400 367.600 C 297.233 366.940,298.099 366.400,298.324 366.400 C 298.549 366.400,298.793 366.265,298.867 366.100 C 298.940 365.935,299.720 365.308,300.600 364.707 C 301.480 364.107,302.678 363.207,303.263 362.707 C 303.847 362.208,304.724 361.530,305.212 361.200 C 305.699 360.870,306.301 360.408,306.549 360.174 C 306.797 359.940,307.294 359.580,307.653 359.374 C 308.011 359.168,309.076 358.370,310.017 357.600 C 311.822 356.124,316.337 352.423,318.953 350.275 C 319.807 349.574,320.816 348.730,321.195 348.400 C 321.575 348.070,322.826 346.990,323.976 346.000 C 326.379 343.931,327.055 343.315,333.200 337.600 C 337.771 333.349,346.382 324.666,349.663 321.000 C 350.647 319.900,352.160 318.207,353.026 317.237 C 353.892 316.267,355.023 315.007,355.541 314.437 C 356.058 313.867,357.318 312.366,358.341 311.101 C 359.363 309.837,360.335 308.802,360.500 308.801 C 360.665 308.801,360.800 308.622,360.800 308.403 C 360.800 307.924,363.546 304.255,364.046 304.067 C 364.241 303.993,364.401 303.723,364.402 303.467 C 364.403 303.210,364.943 302.425,365.602 301.722 C 366.261 301.019,366.800 300.346,366.800 300.227 C 366.800 300.108,368.330 297.686,370.200 294.846 C 372.070 292.005,373.600 289.496,373.600 289.269 C 373.600 289.043,373.833 288.619,374.117 288.329 C 374.680 287.753,380.800 275.597,380.800 275.054 C 380.800 274.740,381.370 273.329,382.600 270.600 C 382.898 269.940,383.227 268.860,383.333 268.200 C 383.438 267.540,384.002 265.560,384.585 263.800 C 386.364 258.427,386.800 256.923,386.800 256.160 C 386.800 255.757,387.052 254.701,387.360 253.813 C 387.668 252.926,388.227 250.760,388.601 249.000 C 388.976 247.240,389.465 244.990,389.688 244.000 C 389.911 243.010,390.259 241.030,390.461 239.600 C 390.664 238.170,391.095 235.110,391.420 232.800 C 391.745 230.490,392.193 226.530,392.415 224.000 C 392.638 221.470,392.999 218.320,393.217 217.000 C 394.384 209.951,393.588 168.400,392.171 162.401 C 392.041 161.851,391.682 159.241,391.373 156.601 C 390.548 149.546,390.057 146.343,389.604 145.040 C 389.382 144.402,389.200 143.428,389.200 142.875 C 389.200 142.323,388.942 140.954,388.626 139.835 C 388.311 138.716,387.756 136.630,387.394 135.200 C 386.128 130.200,385.504 128.137,384.007 124.000 C 383.728 123.230,383.413 122.015,383.306 121.300 C 383.200 120.585,382.966 120.000,382.788 120.000 C 382.610 120.000,382.336 119.421,382.181 118.713 C 382.025 118.005,381.750 117.150,381.569 116.813 C 381.387 116.476,380.240 114.130,379.020 111.600 C 375.517 104.337,370.639 96.173,369.500 95.667 C 369.335 95.593,369.200 95.370,369.200 95.171 C 369.200 94.972,368.348 93.682,367.308 92.304 C 364.720 88.880,364.692 88.844,363.900 87.971 C 363.515 87.547,363.200 87.020,363.200 86.800 C 363.200 86.580,363.045 86.400,362.856 86.400 C 362.666 86.400,361.742 85.211,360.803 83.758 C 356.537 77.162,334.832 57.080,323.838 49.558 C 322.497 48.641,319.780 46.770,317.800 45.401 C 315.820 44.033,312.580 41.952,310.600 40.777 C 308.620 39.603,306.910 38.538,306.800 38.413 C 306.690 38.287,306.150 37.957,305.600 37.680 C 305.050 37.404,303.520 36.534,302.200 35.747 C 298.069 33.286,281.668 24.800,281.043 24.800 C 280.935 24.800,279.296 24.080,277.400 23.200 C 275.504 22.320,273.863 21.600,273.754 21.600 C 273.569 21.600,270.808 20.428,269.000 19.582 C 265.886 18.125,250.914 13.168,244.400 11.437 C 237.943 9.722,234.109 8.927,229.692 8.390 C 228.092 8.196,226.641 7.949,226.466 7.841 C 224.688 6.742,200.853 5.748,192.400 6.421 M219.600 7.580 C 224.397 8.044,230.490 8.854,231.200 9.122 C 231.530 9.246,232.970 9.563,234.400 9.825 C 239.186 10.701,241.794 11.268,242.600 11.607 C 243.040 11.791,244.097 12.058,244.949 12.199 C 245.801 12.339,246.791 12.597,247.149 12.771 C 248.033 13.201,251.506 14.265,253.095 14.594 C 253.808 14.741,254.494 15.028,254.619 15.231 C 254.745 15.434,255.342 15.600,255.947 15.600 C 256.552 15.600,257.396 15.864,257.824 16.187 C 258.251 16.510,258.984 16.780,259.454 16.787 C 259.924 16.794,260.824 17.069,261.454 17.398 C 262.084 17.726,262.881 17.996,263.224 17.998 C 263.566 17.999,264.196 18.264,264.624 18.587 C 265.051 18.910,265.818 19.180,266.329 19.187 C 266.839 19.194,267.527 19.470,267.857 19.800 C 268.187 20.130,268.849 20.406,269.329 20.413 C 269.808 20.420,270.549 20.690,270.976 21.013 C 271.404 21.336,272.056 21.600,272.427 21.600 C 272.798 21.600,273.326 21.870,273.600 22.200 C 273.874 22.530,274.504 22.800,275.000 22.800 C 275.496 22.800,276.126 23.070,276.400 23.400 C 276.674 23.730,277.326 24.000,277.849 24.000 C 278.372 24.000,278.800 24.177,278.800 24.392 C 278.800 24.608,279.295 24.905,279.900 25.052 C 280.505 25.199,281.355 25.563,281.789 25.860 C 282.223 26.157,282.898 26.400,283.289 26.400 C 283.680 26.400,284.000 26.553,284.000 26.740 C 284.000 26.927,284.843 27.422,285.874 27.840 C 286.904 28.258,288.479 29.008,289.374 29.507 C 290.268 30.005,291.900 30.867,293.000 31.422 C 294.100 31.977,295.793 32.874,296.763 33.415 C 297.733 33.957,298.768 34.400,299.063 34.400 C 299.358 34.400,299.600 34.578,299.600 34.795 C 299.600 35.012,300.185 35.451,300.900 35.772 C 302.978 36.703,305.373 38.158,305.720 38.700 C 305.896 38.975,306.391 39.200,306.820 39.200 C 307.249 39.200,307.600 39.339,307.600 39.508 C 307.600 39.678,308.455 40.263,309.500 40.808 C 310.545 41.354,311.490 41.890,311.600 42.000 C 312.176 42.576,314.419 44.000,314.750 44.000 C 314.961 44.000,315.193 44.135,315.267 44.300 C 315.469 44.755,317.910 46.400,318.384 46.400 C 318.613 46.400,318.805 46.535,318.811 46.700 C 318.817 46.865,319.537 47.441,320.411 47.980 C 321.285 48.520,322.000 49.105,322.000 49.280 C 322.000 49.456,322.187 49.600,322.416 49.600 C 322.890 49.600,325.331 51.245,325.533 51.700 C 325.607 51.865,325.922 52.000,326.233 52.000 C 326.545 52.000,326.800 52.149,326.800 52.332 C 326.800 52.515,327.620 53.253,328.623 53.973 C 329.625 54.693,331.110 55.893,331.923 56.639 C 332.735 57.386,333.585 57.997,333.811 57.998 C 334.037 57.999,334.504 58.315,334.849 58.700 C 335.194 59.085,336.620 60.390,338.019 61.600 C 343.785 66.587,351.233 73.827,356.400 79.470 C 361.113 84.617,360.760 83.860,361.194 89.737 C 361.407 92.632,361.663 95.391,361.762 95.869 C 362.705 100.419,362.708 152.531,361.765 154.056 C 361.654 154.237,361.308 156.863,360.997 159.892 C 360.201 167.644,359.681 171.578,359.239 173.200 C 358.904 174.432,358.543 176.224,357.747 180.600 C 357.431 182.337,353.976 193.681,353.239 195.400 C 353.050 195.840,352.586 197.010,352.207 198.000 C 350.299 202.981,349.897 202.883,349.729 197.400 C 349.612 193.590,349.063 186.419,348.596 182.609 C 348.253 179.809,347.021 173.589,346.297 171.000 C 345.866 169.460,345.271 167.337,344.974 166.282 C 344.393 164.210,341.390 157.876,340.405 156.643 C 335.390 150.368,333.305 149.071,333.799 152.535 C 334.340 156.328,334.445 157.185,334.852 161.200 C 335.283 165.440,335.112 183.303,334.622 185.200 C 334.480 185.750,334.276 187.010,334.169 188.000 C 333.813 191.284,330.527 207.152,329.365 211.200 C 328.050 215.776,327.157 219.034,326.952 220.000 C 326.835 220.550,326.582 221.360,326.389 221.800 C 326.196 222.240,325.864 223.230,325.651 224.000 C 325.189 225.674,324.465 227.736,323.734 229.460 C 323.440 230.154,323.200 231.063,323.200 231.480 C 323.200 231.898,323.048 232.411,322.862 232.620 C 322.676 232.829,322.108 234.170,321.600 235.600 C 321.092 237.030,320.524 238.371,320.338 238.580 C 320.152 238.789,320.000 239.204,320.000 239.502 C 320.000 240.783,313.652 253.502,312.149 255.231 C 311.847 255.579,311.600 256.061,311.600 256.303 C 311.600 256.545,311.375 256.981,311.100 257.271 C 310.825 257.562,309.859 258.790,308.953 260.000 C 307.367 262.118,305.541 264.274,303.000 267.028 C 302.043 268.065,298.599 270.810,295.380 273.101 C 294.365 273.823,288.682 276.750,286.600 277.624 C 280.969 279.986,279.425 280.586,277.200 281.277 C 275.770 281.720,274.420 282.212,274.200 282.368 C 273.980 282.524,271.640 283.334,269.000 284.169 C 266.360 285.003,263.840 285.835,263.400 286.018 C 262.960 286.201,260.710 286.983,258.400 287.756 C 252.947 289.580,248.008 291.360,247.000 291.864 C 246.560 292.085,245.600 292.565,244.868 292.932 C 244.135 293.300,243.350 293.600,243.125 293.600 C 242.899 293.600,241.519 294.154,240.057 294.830 C 238.596 295.507,236.860 296.309,236.200 296.611 C 233.489 297.855,220.456 304.126,218.600 305.081 C 203.018 313.094,194.344 317.186,187.000 319.988 C 186.560 320.156,185.207 320.677,183.992 321.146 C 182.778 321.616,181.509 322.000,181.172 322.000 C 180.836 322.000,180.389 322.166,180.180 322.369 C 179.681 322.855,169.083 325.373,165.000 325.977 C 157.165 327.135,144.632 326.560,134.200 324.564 C 130.593 323.874,121.556 321.708,120.254 321.222 C 119.784 321.047,118.320 320.596,117.000 320.221 C 115.680 319.845,114.090 319.282,113.468 318.969 C 112.845 318.656,112.095 318.400,111.802 318.400 C 111.221 318.400,105.036 316.186,103.900 315.572 C 103.515 315.363,102.052 314.761,100.649 314.233 C 99.247 313.705,97.132 312.824,95.949 312.275 C 94.767 311.727,93.080 310.980,92.200 310.617 C 91.320 310.254,90.122 309.696,89.538 309.378 C 88.954 309.060,88.189 308.800,87.838 308.800 C 87.487 308.800,87.200 308.632,87.200 308.427 C 87.200 308.222,86.795 307.936,86.300 307.792 C 85.149 307.457,80.265 305.086,79.996 304.732 C 79.884 304.584,79.299 304.340,78.696 304.188 C 78.093 304.037,77.600 303.753,77.600 303.557 C 77.600 303.360,77.333 303.200,77.006 303.200 C 76.504 303.200,74.328 302.146,70.600 300.097 C 70.160 299.855,68.950 299.271,67.911 298.798 C 66.873 298.326,65.433 297.548,64.711 297.070 C 63.990 296.591,62.050 295.509,60.400 294.665 C 58.750 293.821,56.860 292.788,56.200 292.369 C 55.540 291.951,54.730 291.482,54.400 291.327 C 54.070 291.172,52.810 290.451,51.600 289.724 C 48.151 287.651,47.373 288.371,49.457 291.708 C 51.209 294.514,53.359 297.787,53.588 298.000 C 53.707 298.110,54.278 298.830,54.856 299.600 C 56.503 301.792,65.074 310.244,68.396 312.952 C 70.048 314.298,71.490 315.511,71.600 315.647 C 71.826 315.926,79.362 320.902,81.800 322.381 C 85.959 324.906,97.621 330.800,98.456 330.800 C 98.671 330.800,98.733 330.986,98.592 331.212 C 98.180 331.880,95.836 331.381,87.200 328.789 C 85.110 328.162,82.320 327.354,81.000 326.994 C 79.680 326.634,78.240 326.201,77.800 326.033 C 77.360 325.865,75.110 325.141,72.800 324.425 C 70.490 323.709,68.150 322.941,67.600 322.718 C 67.050 322.495,65.340 321.887,63.800 321.366 C 62.260 320.846,59.200 319.774,57.000 318.985 C 54.800 318.196,52.550 317.406,52.000 317.230 C 42.332 314.134,39.531 312.135,32.005 302.962 C 30.579 301.223,29.274 299.740,29.105 299.667 C 28.937 299.593,28.800 299.287,28.800 298.987 C 28.800 298.686,28.562 298.296,28.270 298.120 C 27.979 297.944,27.304 297.170,26.770 296.400 C 26.237 295.630,25.440 294.640,25.000 294.199 C 24.560 293.759,23.840 292.704,23.400 291.855 C 22.960 291.007,22.375 290.223,22.100 290.113 C 21.825 290.004,21.600 289.677,21.600 289.386 C 21.600 289.095,21.375 288.612,21.100 288.313 C 20.555 287.720,19.998 286.792,18.523 284.015 C 17.992 283.017,17.388 282.029,17.179 281.820 C 16.971 281.611,16.800 281.178,16.800 280.859 C 16.800 280.539,16.260 279.135,15.600 277.738 C 14.940 276.341,14.400 274.949,14.400 274.645 C 14.400 274.340,14.131 273.576,13.802 272.946 C 13.474 272.316,13.204 271.406,13.202 270.924 C 13.201 270.442,13.044 269.951,12.853 269.833 C 12.662 269.715,12.383 268.698,12.234 267.574 C 12.085 266.450,11.808 265.231,11.617 264.865 C 11.427 264.499,11.050 262.940,10.780 261.400 C 10.510 259.860,10.039 257.160,9.733 255.400 C 9.427 253.640,9.017 250.350,8.820 248.089 C 8.624 245.828,8.275 242.408,8.044 240.489 C 6.812 230.225,6.118 205.147,6.747 193.600 C 6.993 189.090,7.294 182.610,7.416 179.200 C 7.538 175.790,7.820 171.920,8.042 170.600 C 8.265 169.280,8.609 166.040,8.807 163.400 C 9.332 156.421,10.971 147.023,13.340 137.400 C 14.627 132.175,14.860 131.386,15.223 131.020 C 15.430 130.811,15.600 130.170,15.600 129.596 C 15.600 129.023,15.864 128.204,16.187 127.776 C 16.510 127.349,16.780 126.430,16.787 125.732 C 16.794 125.035,17.056 123.955,17.368 123.332 C 17.681 122.710,18.235 121.390,18.600 120.400 C 18.965 119.410,19.519 118.090,19.832 117.468 C 20.144 116.845,20.400 116.012,20.400 115.617 C 20.400 115.221,20.670 114.674,21.000 114.400 C 21.330 114.126,21.600 113.474,21.600 112.951 C 21.600 112.428,21.768 112.000,21.973 112.000 C 22.178 112.000,22.464 111.595,22.607 111.100 C 22.993 109.772,27.717 100.287,28.300 99.671 C 28.575 99.381,28.800 98.901,28.800 98.605 C 28.800 98.309,28.944 98.007,29.121 97.933 C 29.298 97.860,30.140 96.630,30.994 95.200 C 33.012 91.817,36.032 87.436,36.462 87.267 C 36.648 87.193,36.800 86.878,36.800 86.567 C 36.800 86.255,36.938 86.000,37.106 86.000 C 37.274 86.000,37.856 85.280,38.400 84.400 C 38.944 83.520,39.495 82.800,39.625 82.800 C 39.755 82.800,40.644 81.720,41.600 80.400 C 42.556 79.080,43.487 78.000,43.669 78.000 C 43.851 78.000,44.000 77.833,44.000 77.629 C 44.000 76.818,55.092 66.099,60.800 61.395 C 61.790 60.579,62.660 59.751,62.733 59.556 C 62.807 59.360,63.102 59.200,63.391 59.200 C 63.679 59.200,64.018 58.930,64.145 58.600 C 64.271 58.270,64.560 58.000,64.785 58.000 C 65.011 58.000,66.682 56.924,68.498 55.610 C 70.314 54.295,72.557 52.675,73.483 52.010 C 74.409 51.344,75.354 50.800,75.583 50.800 C 75.812 50.800,76.000 50.620,76.000 50.400 C 76.000 50.180,76.202 50.000,76.449 50.000 C 76.815 50.000,80.819 47.761,83.600 46.002 C 83.930 45.794,85.235 45.130,86.500 44.528 C 87.765 43.926,88.800 43.291,88.800 43.117 C 88.800 42.943,89.147 42.800,89.571 42.800 C 89.996 42.800,90.613 42.530,90.943 42.200 C 91.273 41.870,91.903 41.600,92.343 41.600 C 92.783 41.600,93.413 41.330,93.743 41.000 C 94.073 40.670,94.613 40.400,94.943 40.400 C 95.273 40.400,95.782 40.160,96.075 39.867 C 96.368 39.575,97.101 39.211,97.704 39.060 C 98.307 38.909,98.800 38.608,98.800 38.392 C 98.800 38.177,99.059 38.000,99.376 38.000 C 99.693 38.000,101.628 37.170,103.676 36.155 C 105.724 35.140,107.760 34.164,108.200 33.987 C 108.640 33.810,112.420 32.021,116.600 30.011 C 120.780 28.001,124.740 26.124,125.400 25.839 C 126.060 25.554,128.314 24.484,130.408 23.461 C 132.503 22.437,134.505 21.600,134.859 21.600 C 135.213 21.600,135.726 21.330,136.000 21.000 C 136.274 20.670,136.823 20.400,137.220 20.400 C 137.618 20.400,138.213 20.130,138.543 19.800 C 138.873 19.470,139.420 19.200,139.758 19.200 C 140.371 19.200,142.383 18.425,144.532 17.361 C 145.155 17.052,145.965 16.794,146.332 16.787 C 146.700 16.780,147.349 16.510,147.776 16.187 C 148.204 15.864,148.881 15.600,149.282 15.600 C 149.683 15.600,150.323 15.435,150.705 15.234 C 151.845 14.633,156.595 13.200,157.448 13.200 C 157.884 13.200,158.411 13.034,158.620 12.831 C 158.829 12.628,159.900 12.277,161.000 12.052 C 162.100 11.827,164.260 11.354,165.800 11.000 C 181.643 7.361,203.176 5.992,219.600 7.580 " stroke="none" fill="#dcdce4" fill-rule="evenodd"></path><path id="path3" d="M187.448 6.016 C 183.055 6.511,183.020 6.929,187.405 6.529 C 191.856 6.122,214.578 6.095,219.200 6.491 C 221.858 6.719,222.338 6.688,221.400 6.347 C 219.877 5.793,191.854 5.520,187.448 6.016 M174.200 7.793 C 171.560 8.280,168.050 8.993,166.400 9.377 C 164.750 9.760,162.950 10.166,162.400 10.278 C 158.673 11.035,143.873 15.990,139.200 18.045 C 138.650 18.286,137.660 18.720,137.000 19.009 C 135.062 19.856,130.404 21.976,127.600 23.288 C 126.170 23.957,124.460 24.742,123.800 25.034 C 123.140 25.326,119.201 27.192,115.047 29.182 C 110.893 31.172,107.428 32.800,107.348 32.800 C 107.268 32.800,103.891 34.420,99.843 36.400 C 95.796 38.380,92.285 40.000,92.042 40.000 C 91.799 40.000,91.600 40.180,91.600 40.400 C 91.600 40.978,91.215 41.139,100.058 36.861 C 104.536 34.695,109.010 32.553,110.000 32.101 C 110.990 31.650,114.590 29.936,118.000 28.293 C 121.410 26.650,125.910 24.534,128.000 23.592 C 130.090 22.649,133.139 21.266,134.775 20.518 C 137.442 19.298,140.336 18.076,142.600 17.212 C 146.723 15.639,148.437 15.033,152.600 13.675 C 159.296 11.491,160.742 11.110,170.200 9.049 C 171.740 8.713,174.890 8.162,177.200 7.824 C 179.510 7.485,181.850 7.141,182.400 7.059 C 182.950 6.976,182.410 6.908,181.200 6.908 C 179.990 6.907,176.840 7.305,174.200 7.793 M224.600 7.210 C 230.840 8.178,234.894 8.888,237.200 9.417 C 241.582 10.422,242.276 10.521,241.600 10.045 C 241.270 9.813,240.190 9.514,239.200 9.379 C 238.210 9.245,236.854 8.969,236.187 8.765 C 234.258 8.177,225.538 6.812,224.000 6.858 C 222.820 6.893,222.914 6.949,224.600 7.210 M243.400 10.820 C 244.060 11.006,245.590 11.413,246.800 11.725 C 248.010 12.037,252.570 13.487,256.933 14.946 C 261.296 16.406,264.986 17.596,265.133 17.591 C 265.605 17.575,263.077 16.514,260.400 15.605 C 258.970 15.119,257.440 14.581,257.000 14.410 C 256.560 14.238,254.310 13.524,252.000 12.824 C 249.690 12.123,246.956 11.291,245.925 10.975 C 244.894 10.659,243.634 10.418,243.125 10.441 C 242.338 10.476,242.379 10.532,243.400 10.820 M265.649 17.783 C 265.750 17.883,267.085 18.485,268.616 19.119 C 297.569 31.121,321.373 45.505,340.800 62.737 C 347.084 68.311,358.556 80.120,361.881 84.439 C 363.596 86.667,366.054 89.865,367.343 91.545 C 373.278 99.285,376.206 104.273,381.815 116.200 C 382.309 117.250,385.360 126.048,386.392 129.400 C 394.040 154.229,396.654 202.109,392.026 232.600 C 390.824 240.521,390.322 243.510,390.009 244.600 C 389.819 245.260,389.540 246.610,389.388 247.600 C 388.776 251.591,384.148 268.386,382.830 271.400 C 382.638 271.840,381.822 273.787,381.016 275.726 C 379.777 278.708,376.304 285.745,374.350 289.230 C 373.388 290.948,366.622 301.371,365.933 302.199 C 365.566 302.640,363.988 304.697,362.426 306.772 C 353.016 319.271,332.005 340.482,317.400 352.227 C 315.420 353.819,312.720 355.999,311.400 357.070 C 310.080 358.142,308.370 359.455,307.600 359.987 C 306.830 360.520,305.300 361.703,304.200 362.616 C 303.100 363.528,300.760 365.266,299.000 366.477 C 293.498 370.264,284.848 376.000,284.639 376.000 C 284.530 376.000,283.666 376.516,282.720 377.148 C 278.279 380.110,266.197 386.221,262.400 387.425 C 261.190 387.808,260.020 388.250,259.800 388.407 C 259.580 388.564,258.950 388.788,258.400 388.904 C 257.850 389.020,255.960 389.502,254.200 389.975 C 234.909 395.160,205.925 395.758,174.600 391.619 C 169.065 390.887,152.510 387.862,150.200 387.161 C 149.540 386.960,147.110 386.330,144.800 385.760 C 140.852 384.787,137.779 383.988,135.000 383.213 C 134.340 383.029,132.180 382.295,130.200 381.581 C 128.220 380.868,125.880 380.028,125.000 379.714 C 113.619 375.664,93.559 362.873,76.834 349.001 C 69.503 342.921,53.777 327.765,42.163 315.586 C 28.509 301.269,19.978 289.930,15.758 280.494 C 14.945 278.675,14.186 277.280,14.072 277.394 C 13.959 277.508,14.057 278.006,14.292 278.501 C 16.758 283.707,18.060 286.179,19.498 288.390 C 20.433 289.825,21.423 291.346,21.698 291.770 C 22.700 293.306,29.164 301.826,30.070 302.804 C 30.581 303.356,31.712 304.706,32.583 305.804 C 33.454 306.902,35.275 308.970,36.629 310.400 C 37.984 311.830,40.061 314.065,41.246 315.367 C 50.680 325.732,70.019 344.257,78.560 351.111 C 80.562 352.717,82.471 354.250,82.803 354.516 C 85.425 356.622,89.024 359.323,91.200 360.816 C 92.630 361.797,93.890 362.705,94.000 362.834 C 94.396 363.296,104.649 369.948,105.712 370.433 C 106.310 370.705,106.800 371.080,106.800 371.264 C 106.800 371.449,106.965 371.600,107.167 371.600 C 107.369 371.600,108.854 372.377,110.467 373.326 C 113.522 375.123,118.892 377.761,122.500 379.237 C 123.655 379.709,125.151 380.336,125.823 380.630 C 127.481 381.354,135.327 383.953,137.800 384.597 C 150.519 387.909,157.595 389.526,163.000 390.359 C 164.100 390.528,166.440 390.887,168.200 391.157 C 169.960 391.427,172.210 391.815,173.200 392.020 C 182.362 393.915,209.810 395.513,221.900 394.854 C 239.896 393.874,245.180 393.090,258.293 389.456 C 263.044 388.139,278.007 381.197,280.031 379.370 C 280.379 379.056,280.777 378.800,280.917 378.800 C 282.069 378.800,302.453 365.072,305.164 362.470 C 305.474 362.173,306.464 361.467,307.364 360.903 C 308.264 360.338,310.530 358.596,312.400 357.033 C 314.270 355.469,316.610 353.565,317.600 352.801 C 318.590 352.037,319.600 351.229,319.845 351.006 C 320.090 350.783,321.440 349.610,322.845 348.400 C 337.297 335.955,354.287 318.446,362.630 307.400 C 364.126 305.420,365.470 303.710,365.617 303.600 C 365.954 303.349,372.964 292.814,373.336 292.000 C 373.487 291.670,374.153 290.500,374.815 289.400 C 376.010 287.416,380.966 277.489,382.104 274.800 C 383.841 270.695,385.109 266.742,387.365 258.400 C 389.358 251.030,389.453 250.643,390.166 247.000 C 390.511 245.240,391.063 242.450,391.393 240.800 C 391.994 237.793,392.538 233.949,393.262 227.600 C 393.476 225.730,393.808 222.850,394.001 221.200 C 395.109 211.710,394.844 174.340,393.605 165.400 C 393.392 163.860,393.017 160.710,392.772 158.400 C 392.202 153.034,391.477 148.667,389.616 139.400 C 389.192 137.291,387.312 130.225,386.635 128.200 C 386.340 127.320,385.792 125.610,385.416 124.400 C 385.040 123.190,384.591 121.840,384.420 121.400 C 384.248 120.960,383.703 119.520,383.209 118.200 C 382.253 115.643,377.658 105.935,377.246 105.600 C 377.111 105.490,376.593 104.590,376.095 103.600 C 374.583 100.594,365.887 88.069,364.430 86.800 C 364.303 86.690,363.480 85.700,362.601 84.600 C 359.830 81.135,359.468 80.719,356.400 77.450 C 349.531 70.132,337.411 58.658,335.252 57.429 C 334.893 57.225,334.420 56.848,334.200 56.591 C 333.980 56.334,332.630 55.249,331.200 54.181 C 329.770 53.112,328.510 52.116,328.400 51.967 C 328.020 51.455,313.093 41.198,312.203 40.837 C 311.981 40.748,311.080 40.211,310.200 39.645 C 307.670 38.018,300.510 33.846,297.200 32.070 C 288.157 27.218,283.195 24.853,273.000 20.536 C 270.140 19.324,267.487 18.168,267.105 17.967 C 266.393 17.591,265.322 17.455,265.649 17.783 M89.389 41.351 C 88.955 41.654,86.890 42.792,84.800 43.880 C 82.710 44.968,80.280 46.308,79.400 46.858 C 78.520 47.408,77.530 47.987,77.200 48.145 C 75.933 48.750,72.083 51.244,69.137 53.368 C 67.892 54.266,66.480 55.270,66.000 55.600 C 65.519 55.930,64.737 56.536,64.263 56.946 C 63.788 57.356,62.950 57.986,62.400 58.346 C 61.399 59.001,60.268 59.904,58.573 61.400 C 58.074 61.840,56.437 63.280,54.935 64.600 C 51.446 67.666,45.376 73.828,42.534 77.190 C 41.320 78.625,39.941 80.250,39.470 80.800 C 38.999 81.350,37.487 83.330,36.110 85.200 C 34.733 87.070,33.436 88.806,33.226 89.058 C 33.017 89.311,31.655 91.471,30.200 93.858 C 28.744 96.246,27.383 98.470,27.174 98.800 C 25.837 100.919,23.182 106.145,23.285 106.456 C 23.354 106.661,24.038 105.612,24.805 104.124 C 37.988 78.566,59.091 57.829,86.600 43.402 C 89.020 42.133,91.075 41.029,91.167 40.947 C 91.648 40.521,90.061 40.882,89.389 41.351 M21.779 109.451 C 21.199 110.743,20.291 112.734,19.762 113.875 C 19.233 115.017,18.800 116.061,18.800 116.197 C 18.800 116.333,18.458 117.199,18.039 118.122 C 17.621 119.045,16.704 121.600,16.001 123.800 C 15.298 126.000,14.580 128.160,14.406 128.600 C 14.231 129.040,13.778 130.570,13.399 132.000 C 13.019 133.430,12.461 135.410,12.159 136.400 C 11.275 139.291,10.398 143.193,10.422 144.132 C 10.434 144.610,11.070 142.570,11.835 139.600 C 15.120 126.852,18.727 116.499,22.626 108.635 C 22.944 107.994,23.120 107.387,23.019 107.286 C 22.917 107.184,22.360 108.158,21.779 109.451 M9.674 147.500 C 7.827 157.256,6.765 165.402,6.859 169.091 L 6.917 171.400 7.204 168.600 C 8.201 158.866,8.505 156.681,10.278 146.500 C 10.403 145.785,10.416 145.200,10.307 145.200 C 10.198 145.200,9.913 146.235,9.674 147.500 M6.133 174.266 C 5.598 178.015,5.748 236.293,6.298 238.200 C 6.731 239.703,6.748 239.630,6.578 237.000 C 6.079 229.272,5.941 186.556,6.393 179.671 C 6.875 172.329,6.758 169.889,6.133 174.266 M7.003 243.600 C 7.139 247.442,7.999 254.528,8.774 258.200 C 9.006 259.300,9.393 261.249,9.633 262.532 C 9.873 263.814,10.173 264.760,10.299 264.634 C 10.426 264.508,10.322 263.458,10.068 262.302 C 8.816 256.587,8.191 252.360,7.184 242.800 L 6.869 239.800 7.003 243.600 M10.436 266.081 C 10.416 266.676,10.568 267.576,10.774 268.081 C 10.979 268.587,11.616 270.531,12.189 272.402 C 13.125 275.457,13.977 277.490,13.994 276.708 C 13.997 276.548,13.524 275.018,12.943 273.308 C 12.362 271.599,11.568 269.030,11.179 267.600 C 10.733 265.960,10.459 265.399,10.436 266.081 " stroke="none" fill="#bcc4d4" fill-rule="evenodd"></path><path id="path4" d="M192.500 6.291 C 193.325 6.378,194.675 6.378,195.500 6.291 C 196.325 6.205,195.650 6.134,194.000 6.134 C 192.350 6.134,191.675 6.205,192.500 6.291 M211.300 6.291 C 212.125 6.378,213.475 6.378,214.300 6.291 C 215.125 6.205,214.450 6.134,212.800 6.134 C 211.150 6.134,210.475 6.205,211.300 6.291 M187.700 6.687 C 188.305 6.778,189.295 6.778,189.900 6.687 C 190.505 6.595,190.010 6.520,188.800 6.520 C 187.590 6.520,187.095 6.595,187.700 6.687 M216.700 6.682 C 217.195 6.778,218.005 6.778,218.500 6.682 C 218.995 6.587,218.590 6.509,217.600 6.509 C 216.610 6.509,216.205 6.587,216.700 6.682 M183.905 7.083 C 184.402 7.179,185.122 7.175,185.505 7.075 C 185.887 6.975,185.480 6.896,184.600 6.901 C 183.720 6.905,183.407 6.987,183.905 7.083 M220.705 7.083 C 221.202 7.179,221.922 7.175,222.305 7.075 C 222.687 6.975,222.280 6.896,221.400 6.901 C 220.520 6.905,220.207 6.987,220.705 7.083 M180.305 7.483 C 180.802 7.579,181.522 7.575,181.905 7.475 C 182.287 7.375,181.880 7.296,181.000 7.301 C 180.120 7.305,179.807 7.387,180.305 7.483 M176.200 8.000 L 174.600 8.286 176.000 8.303 C 176.770 8.313,177.850 8.176,178.400 8.000 C 179.685 7.588,178.499 7.588,176.200 8.000 M227.200 7.993 C 228.188 8.316,231.489 8.535,231.167 8.256 C 231.075 8.176,229.920 8.011,228.600 7.888 C 227.109 7.749,226.579 7.789,227.200 7.993 M170.400 9.000 C 169.410 9.287,168.960 9.525,169.400 9.530 C 169.840 9.535,170.920 9.301,171.800 9.011 C 173.871 8.329,172.749 8.320,170.400 9.000 M233.800 9.028 C 234.900 9.334,236.070 9.572,236.400 9.557 C 236.730 9.541,236.100 9.278,235.000 8.972 C 233.900 8.666,232.730 8.428,232.400 8.443 C 232.070 8.459,232.700 8.722,233.800 9.028 M165.800 10.000 C 165.296 10.217,165.222 10.344,165.600 10.344 C 165.930 10.344,166.560 10.189,167.000 10.000 C 167.504 9.783,167.578 9.656,167.200 9.656 C 166.870 9.656,166.240 9.811,165.800 10.000 M160.000 11.400 C 158.133 12.119,158.939 12.133,161.200 11.421 C 162.190 11.109,162.640 10.855,162.200 10.857 C 161.760 10.859,160.770 11.103,160.000 11.400 M155.600 12.625 C 154.718 12.959,154.496 13.157,155.000 13.159 C 155.440 13.162,156.340 12.917,157.000 12.614 C 158.527 11.915,157.455 11.923,155.600 12.625 M248.600 12.614 C 249.260 12.917,250.160 13.164,250.600 13.164 C 251.040 13.165,250.680 12.905,249.800 12.588 C 247.792 11.865,247.000 11.882,248.600 12.614 M140.000 18.200 C 139.450 18.514,139.180 18.772,139.400 18.772 C 139.620 18.772,140.250 18.514,140.800 18.200 C 141.350 17.886,141.620 17.628,141.400 17.628 C 141.180 17.628,140.550 17.886,140.000 18.200 M265.546 18.216 C 266.286 18.537,267.006 18.794,267.146 18.786 C 267.666 18.757,265.376 17.628,264.800 17.630 C 264.470 17.631,264.806 17.894,265.546 18.216 M269.020 19.555 C 269.229 19.750,269.850 20.028,270.400 20.172 L 271.400 20.433 270.400 19.831 C 269.286 19.159,268.409 18.984,269.020 19.555 M127.600 23.800 C 126.610 24.330,125.942 24.772,126.116 24.782 C 126.541 24.806,129.600 23.234,129.600 22.992 C 129.600 22.727,129.617 22.720,127.600 23.800 M279.600 24.200 C 280.150 24.514,280.780 24.772,281.000 24.772 C 281.220 24.772,280.950 24.514,280.400 24.200 C 279.850 23.886,279.220 23.628,279.000 23.628 C 278.780 23.628,279.050 23.886,279.600 24.200 M124.000 25.400 C 123.450 25.714,123.180 25.972,123.400 25.972 C 123.620 25.972,124.250 25.714,124.800 25.400 C 125.350 25.086,125.620 24.828,125.400 24.828 C 125.180 24.828,124.550 25.086,124.000 25.400 M284.400 26.400 C 285.170 26.822,285.980 27.166,286.200 27.166 C 286.420 27.166,285.970 26.822,285.200 26.400 C 284.430 25.978,283.620 25.634,283.400 25.634 C 283.180 25.634,283.630 25.978,284.400 26.400 M115.200 29.600 C 113.990 30.239,113.180 30.762,113.400 30.762 C 113.620 30.762,114.790 30.239,116.000 29.600 C 117.210 28.961,118.020 28.438,117.800 28.438 C 117.580 28.438,116.410 28.961,115.200 29.600 M289.200 28.588 C 289.200 28.698,290.280 29.334,291.600 30.000 C 292.920 30.666,294.000 31.122,294.000 31.012 C 294.000 30.902,292.920 30.266,291.600 29.600 C 290.280 28.934,289.200 28.478,289.200 28.588 M298.600 33.491 C 298.820 33.723,300.080 34.501,301.400 35.221 C 302.720 35.941,303.620 36.341,303.400 36.109 C 303.180 35.877,301.920 35.099,300.600 34.379 C 299.280 33.659,298.380 33.259,298.600 33.491 M104.200 34.800 C 102.636 35.836,103.192 35.837,104.890 34.801 C 105.611 34.362,106.020 34.004,105.800 34.004 C 105.580 34.005,104.860 34.363,104.200 34.800 M99.200 37.200 C 98.430 37.622,97.980 37.966,98.200 37.966 C 98.420 37.966,99.230 37.622,100.000 37.200 C 100.770 36.778,101.220 36.434,101.000 36.434 C 100.780 36.434,99.970 36.778,99.200 37.200 M304.744 37.176 C 305.264 37.629,305.879 38.000,306.111 38.000 C 306.603 38.000,306.579 37.980,305.000 37.055 L 303.800 36.353 304.744 37.176 M306.800 38.304 C 306.801 38.467,307.701 39.105,308.800 39.723 C 311.391 41.178,311.391 40.832,308.800 39.238 C 307.700 38.561,306.800 38.141,306.800 38.304 M89.628 41.841 C 88.044 42.633,86.810 43.343,86.885 43.418 C 87.016 43.549,92.376 40.957,92.752 40.581 C 93.190 40.144,92.315 40.496,89.628 41.841 M311.800 41.407 C 312.240 41.766,312.960 42.235,313.400 42.451 L 314.200 42.844 313.400 42.193 C 312.960 41.834,312.240 41.365,311.800 41.149 L 311.000 40.756 311.800 41.407 M316.800 44.518 C 316.800 44.599,317.655 45.249,318.700 45.964 C 320.138 46.948,320.308 47.008,319.400 46.212 C 318.192 45.154,316.800 44.247,316.800 44.518 M79.515 47.286 C 77.599 48.429,76.092 49.426,76.168 49.502 C 76.307 49.640,82.268 46.171,82.980 45.538 C 83.782 44.824,82.878 45.281,79.515 47.286 M72.400 51.652 C 69.569 53.576,67.808 54.965,69.200 54.178 C 70.412 53.492,75.600 49.908,75.600 49.756 C 75.600 49.489,75.477 49.561,72.400 51.652 M324.400 49.727 C 324.400 49.824,325.435 50.681,326.700 51.630 C 327.965 52.579,328.783 53.087,328.518 52.759 C 327.975 52.085,324.400 49.454,324.400 49.727 M330.765 54.683 C 334.725 58.085,340.067 62.316,338.263 60.622 C 337.198 59.622,334.678 57.535,332.663 55.985 C 330.648 54.435,329.794 53.849,330.765 54.683 M66.091 56.042 C 64.941 56.919,64.000 57.726,64.000 57.837 C 64.000 57.947,64.821 57.410,65.825 56.643 C 66.828 55.877,67.863 55.174,68.125 55.080 C 68.386 54.986,68.506 54.806,68.391 54.679 C 68.276 54.552,67.241 55.165,66.091 56.042 M60.600 60.294 C 59.060 61.544,56.990 63.357,56.000 64.324 C 55.010 65.291,56.090 64.513,58.400 62.596 C 62.884 58.875,63.881 57.994,63.586 58.011 C 63.484 58.017,62.140 59.044,60.600 60.294 M341.983 64.100 C 343.641 65.866,344.000 66.184,344.000 65.883 C 344.000 65.819,343.145 64.964,342.100 63.983 L 340.200 62.200 341.983 64.100 M50.479 69.321 C 48.676 71.133,47.200 72.715,47.200 72.834 C 47.200 72.954,48.728 71.523,50.596 69.655 C 52.464 67.787,53.940 66.206,53.875 66.142 C 53.811 66.077,52.282 67.508,50.479 69.321 M346.413 68.068 C 346.947 68.832,355.600 77.489,355.600 77.258 C 355.600 77.109,353.491 74.920,350.913 72.393 C 348.336 69.867,346.311 67.920,346.413 68.068 M44.025 76.118 L 42.279 78.200 44.220 76.314 C 45.288 75.277,46.073 74.340,45.966 74.232 C 45.858 74.125,44.984 74.973,44.025 76.118 M358.089 80.261 C 359.118 81.395,360.524 83.240,361.214 84.361 C 361.904 85.483,362.633 86.400,362.834 86.400 C 363.035 86.400,363.200 86.580,363.200 86.800 C 363.200 87.020,363.515 87.547,363.900 87.971 C 364.692 88.844,364.720 88.880,367.308 92.304 C 368.348 93.682,369.200 94.972,369.200 95.171 C 369.200 95.370,369.335 95.593,369.500 95.667 C 370.639 96.173,375.517 104.337,379.020 111.600 C 380.240 114.130,381.387 116.476,381.569 116.813 C 381.750 117.150,382.025 118.005,382.181 118.713 C 382.336 119.421,382.649 120.000,382.875 120.000 C 383.108 120.000,383.162 119.697,383.001 119.300 C 382.845 118.915,382.577 118.138,382.407 117.573 C 382.237 117.008,381.902 116.198,381.664 115.773 C 381.425 115.348,380.324 113.110,379.217 110.800 C 375.764 103.599,372.389 98.125,367.343 91.545 C 360.703 82.886,358.777 80.496,357.556 79.400 C 356.747 78.674,356.958 79.014,358.089 80.261 M36.171 85.900 C 35.553 86.725,34.612 88.030,34.079 88.800 L 33.111 90.200 34.155 89.000 C 35.501 87.453,37.702 84.400,37.472 84.400 C 37.375 84.400,36.789 85.075,36.171 85.900 M30.794 93.700 C 30.093 94.855,29.780 95.530,30.098 95.200 C 30.818 94.454,32.537 91.600,32.267 91.600 C 32.158 91.600,31.495 92.545,30.794 93.700 M27.670 98.870 C 26.733 100.426,26.025 101.759,26.097 101.831 C 26.169 101.902,26.994 100.687,27.930 99.130 C 28.867 97.574,29.575 96.241,29.503 96.169 C 29.431 96.098,28.606 97.313,27.670 98.870 M23.404 106.869 C 22.855 108.007,22.471 109.004,22.550 109.084 C 22.630 109.163,23.013 108.547,23.401 107.714 C 23.789 106.881,24.269 105.885,24.467 105.500 C 24.666 105.115,24.732 104.800,24.615 104.800 C 24.498 104.800,23.953 105.731,23.404 106.869 M18.065 119.017 C 17.809 119.578,17.607 120.254,17.616 120.519 C 17.624 120.783,17.897 120.388,18.222 119.639 C 18.905 118.065,18.761 117.490,18.065 119.017 M383.345 121.400 C 383.435 122.060,383.735 123.230,384.011 124.000 C 385.549 128.287,386.133 130.219,387.394 135.200 C 387.756 136.630,388.311 138.716,388.626 139.835 C 388.942 140.954,389.200 142.323,389.200 142.875 C 389.200 143.428,389.382 144.402,389.604 145.040 C 390.057 146.343,390.548 149.546,391.373 156.601 C 391.682 159.241,392.041 161.851,392.171 162.401 C 392.484 163.728,393.233 173.180,393.596 180.400 C 393.879 186.030,393.883 185.977,393.753 178.600 C 393.502 164.332,391.086 146.809,387.604 134.000 C 386.917 131.470,386.184 128.770,385.976 128.000 C 385.300 125.491,383.178 120.168,383.345 121.400 M12.229 137.829 C 12.081 138.415,12.038 138.972,12.132 139.066 C 12.227 139.160,12.424 138.758,12.571 138.171 C 12.719 137.585,12.762 137.028,12.668 136.934 C 12.573 136.840,12.376 137.242,12.229 137.829 M11.257 141.857 C 10.974 143.077,10.816 144.149,10.906 144.240 C 10.997 144.330,11.309 143.412,11.600 142.200 C 11.891 140.988,12.049 139.915,11.951 139.817 C 11.853 139.720,11.541 140.637,11.257 141.857 M9.850 148.450 C 9.517 150.117,9.840 150.440,10.200 148.800 C 10.352 148.109,10.393 147.459,10.291 147.358 C 10.189 147.256,9.991 147.747,9.850 148.450 M8.844 154.644 C 8.565 156.308,8.414 157.748,8.510 157.843 C 8.606 157.939,8.916 156.659,9.200 155.000 C 9.484 153.341,9.634 151.901,9.534 151.801 C 9.434 151.701,9.124 152.981,8.844 154.644 M7.880 162.566 C 7.726 164.308,7.673 165.807,7.764 165.898 C 8.011 166.144,8.506 161.036,8.321 160.158 C 8.233 159.741,8.035 160.825,7.880 162.566 M7.314 168.200 C 7.317 169.300,7.395 169.703,7.487 169.095 C 7.579 168.486,7.577 167.586,7.482 167.095 C 7.387 166.603,7.311 167.100,7.314 168.200 M6.920 173.200 C 6.920 174.410,6.995 174.905,7.087 174.300 C 7.178 173.695,7.178 172.705,7.087 172.100 C 6.995 171.495,6.920 171.990,6.920 173.200 M6.206 182.477 C 6.052 185.844,5.988 189.320,6.063 190.200 C 6.138 191.080,6.342 188.402,6.516 184.249 C 6.689 180.096,6.754 176.620,6.659 176.526 C 6.564 176.431,6.360 179.109,6.206 182.477 M393.800 194.988 C 393.800 199.571,393.925 202.620,394.077 201.761 C 394.418 199.841,394.400 189.437,394.053 187.827 C 393.914 187.181,393.800 190.404,393.800 194.988 M393.660 209.376 C 393.627 212.443,393.423 215.953,393.207 217.176 C 392.991 218.399,392.633 221.470,392.413 224.000 C 392.192 226.530,391.731 230.580,391.389 233.000 C 391.046 235.420,390.692 238.300,390.600 239.400 L 390.434 241.400 390.832 239.800 C 392.504 233.076,394.580 209.528,393.900 205.000 C 393.801 204.340,393.693 206.309,393.660 209.376 M6.153 224.600 C 6.153 227.240,6.218 228.268,6.297 226.884 C 6.375 225.501,6.374 223.341,6.295 222.084 C 6.216 220.828,6.152 221.960,6.153 224.600 M6.531 232.200 C 6.533 233.740,6.605 234.321,6.692 233.491 C 6.779 232.661,6.777 231.401,6.689 230.691 C 6.600 229.981,6.529 230.660,6.531 232.200 M6.909 238.400 C 6.909 239.390,6.987 239.795,7.082 239.300 C 7.178 238.805,7.178 237.995,7.082 237.500 C 6.987 237.005,6.909 237.410,6.909 238.400 M7.314 243.400 C 7.317 244.500,7.395 244.903,7.487 244.295 C 7.579 243.686,7.577 242.786,7.482 242.295 C 7.387 241.803,7.311 242.300,7.314 243.400 M389.672 244.000 C 388.653 249.040,387.903 252.217,387.354 253.813 C 387.049 254.701,386.800 255.757,386.800 256.160 C 386.800 256.923,386.364 258.427,384.585 263.800 C 384.002 265.560,383.438 267.540,383.333 268.200 C 383.227 268.860,382.898 269.940,382.600 270.600 C 381.370 273.329,380.800 274.740,380.800 275.054 C 380.800 275.597,374.680 287.753,374.117 288.329 C 373.833 288.619,373.600 289.043,373.600 289.269 C 373.600 289.496,372.070 292.005,370.200 294.846 C 368.330 297.686,366.800 300.108,366.800 300.227 C 366.800 300.346,366.261 301.019,365.602 301.722 C 364.943 302.425,364.403 303.210,364.402 303.467 C 364.401 303.723,364.241 303.993,364.046 304.067 C 363.546 304.255,360.800 307.924,360.800 308.403 C 360.800 308.622,360.665 308.801,360.500 308.801 C 360.335 308.802,359.363 309.837,358.341 311.101 C 357.318 312.366,356.058 313.867,355.541 314.437 C 355.023 315.007,353.892 316.267,353.026 317.237 C 352.160 318.207,350.647 319.900,349.663 321.000 C 346.382 324.666,337.771 333.349,333.200 337.600 C 327.055 343.315,326.379 343.931,323.976 346.000 C 322.826 346.990,321.575 348.070,321.195 348.400 C 320.816 348.730,319.807 349.574,318.953 350.275 C 316.337 352.423,311.822 356.124,310.017 357.600 C 309.076 358.370,308.011 359.168,307.653 359.374 C 307.294 359.580,306.797 359.940,306.549 360.174 C 306.301 360.408,305.699 360.870,305.212 361.200 C 304.724 361.530,303.847 362.208,303.263 362.707 C 302.678 363.207,301.480 364.107,300.600 364.707 C 299.720 365.308,298.940 365.935,298.867 366.100 C 298.793 366.265,298.549 366.400,298.324 366.400 C 298.099 366.400,297.233 366.940,296.400 367.600 C 295.567 368.260,294.701 368.800,294.476 368.800 C 294.251 368.800,294.007 368.942,293.933 369.116 C 293.761 369.525,285.151 375.191,282.801 376.442 C 281.812 376.969,280.912 377.503,280.801 377.629 C 280.691 377.755,280.330 377.982,280.000 378.134 C 279.670 378.285,278.860 378.764,278.200 379.198 C 277.540 379.633,276.554 380.182,276.008 380.419 C 275.463 380.656,274.923 380.974,274.808 381.125 C 274.694 381.276,273.340 382.002,271.800 382.738 C 270.260 383.473,268.730 384.239,268.400 384.440 C 267.733 384.846,267.532 384.930,264.400 386.123 C 262.138 386.983,261.086 387.600,261.878 387.600 C 263.499 387.600,277.812 380.422,282.720 377.148 C 283.666 376.516,284.530 376.000,284.639 376.000 C 284.848 376.000,293.498 370.264,299.000 366.477 C 300.760 365.266,303.100 363.528,304.200 362.616 C 305.300 361.703,306.830 360.520,307.600 359.987 C 308.370 359.455,310.080 358.142,311.400 357.070 C 312.720 355.999,315.420 353.819,317.400 352.227 C 332.005 340.482,353.016 319.271,362.426 306.772 C 363.988 304.697,365.566 302.640,365.933 302.199 C 366.622 301.371,373.388 290.948,374.350 289.230 C 376.304 285.745,379.777 278.708,381.016 275.726 C 381.822 273.787,382.638 271.840,382.830 271.400 C 384.160 268.358,388.797 251.509,389.380 247.600 C 389.528 246.610,389.832 245.324,390.055 244.743 C 390.279 244.162,390.402 243.172,390.329 242.543 C 390.232 241.702,390.058 242.086,389.672 244.000 M7.897 248.400 C 8.015 250.050,8.176 251.475,8.256 251.567 C 8.522 251.875,8.309 247.813,7.994 246.600 C 7.812 245.897,7.772 246.642,7.897 248.400 M8.458 253.400 C 8.445 253.840,8.679 255.280,8.976 256.600 C 9.274 257.920,9.529 258.640,9.542 258.200 C 9.555 257.760,9.321 256.320,9.024 255.000 C 8.726 253.680,8.471 252.960,8.458 253.400 M9.656 260.800 C 9.656 261.130,9.811 261.760,10.000 262.200 C 10.217 262.704,10.344 262.778,10.344 262.400 C 10.344 262.070,10.189 261.440,10.000 261.000 C 9.783 260.496,9.656 260.422,9.656 260.800 M11.444 268.400 C 11.580 269.170,11.854 270.070,12.051 270.400 C 12.477 271.110,12.068 269.037,11.539 267.800 C 11.308 267.260,11.277 267.456,11.444 268.400 M12.456 271.600 C 12.456 271.930,12.611 272.560,12.800 273.000 C 13.017 273.504,13.144 273.578,13.144 273.200 C 13.144 272.870,12.989 272.240,12.800 271.800 C 12.583 271.296,12.456 271.222,12.456 271.600 M14.026 276.400 C 14.033 276.987,15.550 280.049,15.583 279.544 C 15.592 279.403,15.244 278.503,14.809 277.544 C 14.374 276.585,14.021 276.070,14.026 276.400 M20.460 289.100 C 22.841 292.959,28.988 301.200,29.485 301.200 C 29.602 301.200,29.528 300.975,29.321 300.700 C 28.511 299.627,25.789 296.189,25.600 296.000 C 25.231 295.631,22.331 291.419,21.125 289.500 C 20.469 288.455,19.842 287.600,19.733 287.600 C 19.624 287.600,19.951 288.275,20.460 289.100 M33.039 305.600 C 34.937 307.800,36.571 309.600,36.671 309.600 C 36.976 309.600,30.221 301.647,29.895 301.623 C 29.727 301.610,31.142 303.400,33.039 305.600 M39.987 313.175 C 41.215 315.469,69.133 342.615,76.834 349.001 C 93.559 362.873,113.619 375.664,125.000 379.714 C 125.880 380.028,128.220 380.868,130.200 381.581 C 133.832 382.890,134.254 383.022,138.600 384.197 C 142.732 385.315,143.060 385.364,142.520 384.790 C 142.255 384.509,141.265 384.141,140.320 383.971 C 137.805 383.521,135.176 382.797,133.740 382.160 C 133.046 381.852,132.212 381.600,131.885 381.600 C 131.559 381.600,130.776 381.331,130.146 381.002 C 129.516 380.674,128.696 380.404,128.324 380.402 C 127.952 380.401,127.536 380.220,127.400 380.000 C 127.264 379.780,126.884 379.600,126.554 379.600 C 125.960 379.600,124.028 378.807,120.200 376.992 C 119.100 376.471,117.210 375.587,116.000 375.029 C 113.665 373.951,111.610 372.815,109.000 371.157 C 108.120 370.599,107.130 370.013,106.800 369.855 C 106.107 369.524,105.269 369.016,102.908 367.492 C 101.977 366.891,101.047 366.400,100.841 366.400 C 100.635 366.400,100.407 366.265,100.333 366.100 C 100.131 365.645,97.690 364.000,97.216 364.000 C 96.987 364.000,96.800 363.835,96.800 363.633 C 96.800 363.431,96.125 362.854,95.300 362.352 C 93.752 361.409,83.156 353.618,82.800 353.161 C 82.690 353.020,81.364 351.959,79.852 350.805 C 78.341 349.650,76.801 348.411,76.430 348.052 C 76.059 347.694,75.203 346.950,74.527 346.400 C 71.006 343.535,64.511 337.324,52.693 325.519 C 45.485 318.319,39.767 312.764,39.987 313.175 M144.200 385.644 C 145.890 386.173,150.372 387.225,151.800 387.428 L 153.000 387.598 151.800 387.017 C 151.140 386.698,150.128 386.428,149.550 386.418 C 148.973 386.408,147.735 386.130,146.800 385.800 C 145.865 385.470,144.627 385.215,144.050 385.234 C 143.010 385.268,143.012 385.272,144.200 385.644 M155.200 388.217 C 157.981 388.911,158.954 388.897,157.400 388.186 C 156.740 387.883,155.480 387.643,154.600 387.652 C 153.011 387.668,153.015 387.672,155.200 388.217 M258.800 388.200 C 257.418 388.990,258.740 388.992,260.254 388.202 C 261.169 387.725,261.239 387.607,260.600 387.617 C 260.160 387.623,259.350 387.886,258.800 388.200 M162.800 389.648 C 165.110 390.071,167.768 390.593,168.706 390.809 C 169.644 391.024,171.174 391.182,172.106 391.160 C 173.486 391.127,173.207 391.015,170.600 390.555 C 168.840 390.245,166.046 389.723,164.391 389.396 C 162.736 389.068,160.756 388.818,159.991 388.840 C 159.222 388.862,160.478 389.223,162.800 389.648 M254.000 389.390 C 252.111 390.081,249.067 390.811,246.400 391.212 C 243.344 391.672,241.101 392.305,242.337 392.359 C 243.974 392.431,256.978 389.556,257.534 388.999 C 257.928 388.606,255.371 388.888,254.000 389.390 M176.600 391.794 C 178.140 392.100,180.120 392.339,181.000 392.325 L 182.600 392.300 180.800 391.936 C 179.810 391.735,177.830 391.496,176.400 391.404 L 173.800 391.236 176.600 391.794 M185.600 392.810 C 200.655 394.787,226.794 394.789,239.200 392.814 C 242.314 392.318,237.041 392.574,231.400 393.192 C 226.003 393.783,200.149 393.796,194.600 393.210 C 188.885 392.606,181.579 392.282,185.600 392.810 " stroke="none" fill="#c4c4da" fill-rule="evenodd"></path></g></svg>